<?xml version="1.0" encoding="UTF-8" standalone="no"?>
<!DOCTYPE svg PUBLIC "-//W3C//DTD SVG 1.1//EN" "http://www.w3.org/Graphics/SVG/1.1/DTD/svg11.dtd">
<svg width="100%" height="100%" viewBox="0 0 2599 3544" version="1.1" xmlns="http://www.w3.org/2000/svg" xmlns:xlink="http://www.w3.org/1999/xlink" xml:space="preserve" xmlns:serif="http://www.serif.com/" style="fill-rule:evenodd;clip-rule:evenodd;stroke-linejoin:round;stroke-miterlimit:2;">
    <g transform="matrix(1,0,0,1,-9007.711353,-3833.621427)">
        <g id="final_base" transform="matrix(1.047619,0,0,1.010101,9007.711353,3833.621427)">
            <rect x="0" y="0" width="2480.31496" height="3507.87402" style="fill:none;"/>
            <g transform="matrix(3.758053,0,0,3.897638,0,0)">
                <path d="M660,330.00001L660,569.99999C660,752.13195 512.13196,900 330,900C147.86804,900 0,752.13195 0,569.99999L0,330.00001C0,147.86805 147.86804,0 330,0C512.13196,0 660,147.86805 660,330.00001ZM313.46981,25.67598C178.32446,32.91405 66.44439,128.36837 34.43962,255.42892C47.78884,232.8716 67.55834,212.01847 92.34084,195.55646C91.63727,189.30884 93.19628,168.70136 119.15799,150.51403C120.22301,149.76793 121.58598,149.5909 122.80626,150.04016C124.02655,150.48942 124.94935,151.50797 125.27633,152.76655C127.30048,160.55753 126.17552,169.47509 118.12562,180.41204C128.23358,175.62292 138.83253,171.69105 149.79938,168.80476C148.51453,161.81219 145.00148,130.82416 179.00193,112.6715C180.198,112.03293 181.6373,112.04914 182.81868,112.7145C184.00006,113.37986 184.76002,114.60228 184.83395,115.95613C185.97706,136.89016 175.54369,152.99538 166.9585,162.56943L186.62788,151.14246C187.76468,147.60404 191.15997,139.55525 199.94853,132.74479C207.334,127.02163 218.64401,122.07687 235.93844,121.8561C237.42791,121.83708 238.80261,122.65371 239.49835,123.97083C240.1941,125.28796 240.09372,126.88376 239.23842,128.10333C228.24587,143.77745 217.39062,160.66222 190.86645,157.85982L180.9181,163.63933C203.74019,162.05283 227.5582,165.23375 251.42005,174.63881C255.83012,166.25294 270.20942,146.8891 309.11222,146.41323C308.8434,145.85699 308.70381,145.23695 308.71785,144.59913C308.74819,143.22105 309.49141,141.95741 310.68108,141.26119C325.30239,132.70445 343.35584,130.65179 369.45255,141.42676C365.74535,135.45956 362.27785,129.11238 359.078,122.37149C351.70644,123.40665 331.91617,123.90109 312.3141,104.64186C311.36671,103.71104 310.94773,102.36802 311.1978,101.06363C311.44787,99.75924 312.33384,98.66639 313.55831,98.15195C324.03062,93.75213 338.71601,96.46053 351.7526,104.96258C349.10493,97.81889 346.72833,90.29746 344.64799,82.38592C334.99734,79.36242 327.42305,70.66703 322.21708,59.86484C316.99007,49.01902 314.12962,36.13824 313.46981,25.67598ZM599.9357,188.47726C549.63818,92.81826 449.97654,27.09596 334.91373,25.2733C354.32356,49.36935 352.91127,69.90821 351.53159,77.2728C352.68189,81.88121 353.93568,86.35445 355.28774,90.69507C356.71169,77.29766 361.65114,63.70853 370.45782,51.04429C371.2656,49.88269 372.63068,49.23897 374.04079,49.35469C375.45091,49.47042 376.69278,50.32809 377.30036,51.60584C394.39611,87.55846 373.79095,111.95759 366.38417,119.1417C376.61331,140.52233 389.66503,157.74561 404.55501,171.29225C395.00138,151.95675 395.18592,135.0177 395.64403,129.00212C392.3835,123.63023 383.20086,104.81539 395.15099,78.63801C395.69643,77.44321 396.79764,76.59564 398.09225,76.37421C399.38686,76.15279 400.70717,76.58619 401.61869,77.53179C405.41595,81.47103 408.40159,87.78105 409.7263,95.24165C411.59992,105.79372 410.19801,118.65223 403.54689,129.77281C403.23812,134.07926 403.0812,145.36479 408.01224,159.12991C408.04503,154.72797 408.5781,149.91498 409.79548,144.68955C408.26674,116.89856 431.14992,100.75134 445.77084,97.9423C446.97384,97.71118 448.21616,98.04854 449.13701,98.85643C450.05785,99.66431 450.55402,100.85216 450.48141,102.07501C448.66824,132.61207 424.66722,144.8884 417.19724,147.98363C412.20558,172.01891 424.0718,185.38794 426.80882,188.09516C442.77564,197.99798 460.04233,204.63468 477.70193,208.44818C473.55848,205.259 469.38245,201.23505 465.94526,196.2585C463.18032,195.98344 458.51104,194.86575 453.51406,190.82733C446.64832,185.27864 438.69966,173.68263 435.57282,148.98192C435.38214,147.4757 436.06748,145.99269 437.33819,145.16181C438.6089,144.33093 440.24227,144.2978 441.54563,145.07647C461.15561,156.79222 476.52653,170.78943 472.3587,191.57821C482.04479,205.80017 498.78338,211.07172 498.78338,211.07172C499.28404,211.22992 499.73133,211.47842 500.11299,211.7936C505.30081,212.23536 510.48962,212.45386 515.65708,212.46003C513.48272,211.17827 511.20817,209.6452 508.86165,207.81246C492.74866,195.22749 491.86267,174.69722 491.86267,174.69722C491.79704,173.17008 492.61425,171.74098 493.96371,171.02305C495.31316,170.30511 496.95498,170.42597 498.18476,171.33376C498.18476,171.33376 508.26221,178.76694 521.88772,185.97592C534.02411,192.39703 538.32908,200.88771 540.65097,210.84595C563.83334,207.82366 583.0132,199.41907 599.9357,188.47726ZM627.1648,262.11892C621.83099,238.70742 613.79824,216.31779 603.41172,195.29521C581.83653,208.60407 557.26773,218.16283 527.37703,219.67859C524.79317,225.41021 512.93416,242.33541 481.32587,244.72396C480.02921,244.82194 478.7668,244.2785 477.94675,243.26932C477.1267,242.26014 476.85305,240.91324 477.21426,239.66406C479.45028,231.93122 484.96932,224.83695 497.47404,219.54076C486.33747,218.4998 475.21625,216.47106 464.31234,213.35541C461.84811,220.02432 449.05232,248.46492 410.54899,246.72056C409.19451,246.65919 407.96509,245.91061 407.2888,244.73545C406.61251,243.56029 406.58294,242.1212 407.21039,240.91926C416.91245,222.33404 434.10475,213.81006 446.37413,209.95907L423.62737,209.7459C420.84375,212.20844 413.81582,217.39682 402.78213,218.7675C393.50997,219.91936 381.26029,218.39869 366.27563,209.7612C364.98509,209.0173 364.21977,207.6134 364.29376,206.12565C364.36776,204.6379 365.26859,203.31685 366.62658,202.70468C384.07969,194.83682 402.03266,185.85782 423.41116,201.80602L434.91598,201.91384C414.48084,191.62937 395.62266,176.73695 379.90367,156.46982C372.0417,161.30066 350.73377,170.25916 318.50024,152.75907C310.25825,167.39072 295.7908,178.22009 268.08547,182.24035C274.31914,185.4795 280.54064,189.16775 286.73292,193.33118C292.54358,188.67846 309.30942,178.15203 335.99599,184.70838C337.28578,185.02526 338.33157,185.96631 338.78231,187.21563C339.23305,188.46495 339.02899,189.85693 338.23861,190.9243C331.47891,200.05306 317.46812,205.21967 301.91802,204.5626C307.84108,209.35424 313.72383,214.60908 319.55094,220.3506C329.39304,218.02475 340.34465,221.63613 350.33502,228.26803C364.02947,237.35881 375.86674,251.96274 380.42545,262.11892L627.1648,262.11892ZM346.59503,874.32054C480.84813,867.10183 592.13067,772.82721 624.93733,647.002C611.60292,669.06584 592.11585,689.4405 567.80462,705.58947C568.50819,711.83709 566.94917,732.44457 540.98747,750.6319C539.92244,751.378 538.55948,751.55503 537.33919,751.10577C536.1189,750.65651 535.19611,749.63795 534.86912,748.37938C532.84498,740.5884 533.96993,731.67083 542.01984,720.73389C531.91187,725.52301 521.31292,729.45488 510.34607,732.34117C511.63092,739.33373 515.14397,770.32177 481.14353,788.47443C479.94746,789.113 478.50815,789.09679 477.32677,788.43143C476.14539,787.76607 475.38543,786.54364 475.3115,785.1898C474.16839,764.25577 484.60177,748.15055 493.18695,738.5765L473.51757,750.00347C472.38077,753.54189 468.98548,761.59068 460.19692,768.40114C452.81146,774.1243 441.50144,779.06905 424.20701,779.28983C422.71754,779.30884 421.34285,778.49222 420.6471,777.17509C419.95136,775.85797 420.05173,774.26216 420.90704,773.0426C431.89959,757.36848 442.75484,740.48371 469.27901,743.28611L479.22736,737.50659C456.40526,739.09309 432.58726,735.91218 408.72541,726.50712C404.31534,734.89299 389.93603,754.25683 351.03323,754.73269C351.30205,755.28894 351.44164,755.90898 351.4276,756.54679C351.39726,757.92487 350.65404,759.18852 349.46438,759.88474C334.84306,768.44147 316.78961,770.49413 290.69291,759.71917C294.4001,765.68637 297.8676,772.03355 301.06745,778.77443C308.43901,777.73927 328.22929,777.24484 347.83135,796.50407C348.77874,797.43489 349.19772,798.77791 348.94765,800.0823C348.69758,801.38669 347.81161,802.47953 346.58715,802.99398C336.11483,807.3938 321.42945,804.68539 308.39285,796.18335C311.04053,803.32704 313.41713,810.84847 315.49746,818.76C325.14811,821.7835 332.7224,830.4789 337.92838,841.28109C342.96552,851.73296 345.80491,864.07465 346.59503,874.32054ZM60.55259,712.44754C110.89137,807.39084 209.94732,872.6157 324.31179,874.71346C305.86729,851.1197 307.25636,831.11934 308.61386,823.87313C307.46356,819.26472 306.20977,814.79148 304.85772,810.45086C303.43377,823.84827 298.49431,837.43739 289.68763,850.10163C288.87986,851.26323 287.51477,851.90696 286.10466,851.79123C284.69455,851.67551 283.45268,850.81784 282.8451,849.54009C265.74934,813.58747 286.35451,789.18834 293.76129,782.00422C283.53214,760.6236 270.48042,743.40031 255.59044,729.85367C265.14408,749.18917 264.95954,766.12823 264.50142,772.14381C267.76196,777.5157 276.94459,796.33054 264.99446,822.50792C264.44903,823.70271 263.34781,824.55029 262.05321,824.77171C260.7586,824.99314 259.43829,824.55974 258.52677,823.61414C254.7295,819.67489 251.74386,813.36488 250.41916,805.90427C248.54553,795.35221 249.94745,782.4937 256.59857,771.37312C256.90734,767.06666 257.06425,755.78113 252.13322,742.01601C252.10043,746.41796 251.56735,751.23094 250.34997,756.45637C251.87872,784.24736 228.99553,800.39458 214.37461,803.20362C213.17161,803.43475 211.92929,803.09738 211.00845,802.2895C210.0876,801.48162 209.59143,800.29377 209.66404,799.07092C211.47721,768.53385 235.47824,756.25752 242.94822,753.1623C247.93988,729.12702 236.07365,715.75798 233.33663,713.05077C217.36981,703.14794 200.10312,696.51125 182.44353,692.69775C186.58697,695.88693 190.763,699.91088 194.2002,704.88743C196.96514,705.16249 201.63442,706.28018 206.6314,710.31859C213.49714,715.86728 221.44579,727.46329 224.57264,752.16401C224.76331,753.67023 224.07797,755.15324 222.80726,755.98412C221.53656,756.815 219.90318,756.84812 218.59983,756.06945C198.98985,744.35371 183.61893,730.3565 187.78676,709.56772C178.10066,695.34576 161.36208,690.07421 161.36208,690.07421C160.86142,689.91601 160.41412,689.66751 160.03247,689.35232C154.84464,688.91057 149.65583,688.69206 144.48837,688.6859C146.66273,689.96766 148.93729,691.50073 151.2838,693.33347C167.3968,705.91844 168.28278,726.44871 168.28278,726.44871C168.34842,727.97584 167.5312,729.40495 166.18175,730.12288C164.8323,730.84081 163.19047,730.71996 161.96069,729.81217C161.96069,729.81217 151.88324,722.37899 138.25773,715.17001C126.12134,708.74889 121.81637,700.25822 119.49448,690.29998C96.46853,693.30188 77.39125,701.61369 60.55259,712.44754ZM32.8352,637.88108C38.24912,661.64424 46.44368,684.35459 57.0579,705.65117C78.55499,692.44638 103.02733,682.97551 132.76842,681.46734C135.35228,675.73572 147.21129,658.81052 178.81958,656.42197C180.11624,656.32398 181.37865,656.86742 182.1987,657.87661C183.01876,658.88579 183.29241,660.23269 182.93119,661.48187C180.69518,669.21471 175.17614,676.30898 162.67142,681.60517C173.80798,682.64613 184.9292,684.67487 195.83311,687.79051C198.29734,681.1216 211.09313,652.68101 249.59647,654.42537C250.95094,654.48673 252.18036,655.23532 252.85665,656.41048C253.53295,657.58564 253.56251,659.02473 252.93506,660.22667C243.23301,678.81189 226.04071,687.33587 213.77132,691.18685L236.51808,691.40003C239.30171,688.93749 246.32964,683.74911 257.36333,682.37842C266.63548,681.22657 278.88517,682.74724 293.86982,691.38473C295.16036,692.12862 295.92568,693.53253 295.85169,695.02028C295.7777,696.50803 294.87686,697.82907 293.51888,698.44125C276.06577,706.3091 258.11279,715.28811 236.7343,699.3399L225.22948,699.23208C245.66461,709.51655 264.5228,724.40898 280.24179,744.67611C288.10376,739.84527 309.41168,730.88677 341.64522,748.38685C349.8872,733.75521 364.35466,722.92584 392.05999,718.90558C385.82632,715.66643 379.60482,711.97817 373.41253,707.81475C367.60188,712.46747 350.83603,722.9939 324.14946,716.43754C322.85967,716.12067 321.81388,715.17962 321.36314,713.9303C320.9124,712.68097 321.11647,711.289 321.90684,710.22162C328.66654,701.09287 342.67733,695.92626 358.22743,696.58333C352.30438,691.79168 346.42162,686.53685 340.59451,680.79533C330.75241,683.12117 319.80081,679.50979 309.81044,672.87789C295.5919,663.43921 283.37542,648.05733 279.22891,637.88108L32.8352,637.88108ZM348.24032,637.88108L306.20902,637.88108C332.73912,648.80918 341.42668,666.10797 343.9041,672.88492C347.24548,676.26069 350.60686,679.4674 353.98504,682.50991C348.3713,670.26229 345.68278,656.05545 346.79187,640.67005C346.87134,639.56766 347.40456,638.56345 348.24032,637.88108ZM620.99793,637.88108L353.28955,637.88108C385.97963,660.05944 380.74024,691.38279 378.04677,701.30818C397.7561,714.47287 417.77066,722.62186 437.48939,726.67093C419.40482,714.92011 410.91756,700.25955 408.24106,694.85275C402.69534,691.89753 385.19555,680.40509 382.11047,651.79489C381.96966,650.48906 382.48402,649.19813 383.48427,648.34693C384.48452,647.49573 385.8411,647.19452 387.1076,647.54241C392.38362,648.9917 398.17178,652.89394 403.11894,658.63338C410.11606,666.75107 415.47369,678.52402 415.43032,691.48175C417.36288,695.34259 422.98825,705.12743 434.25451,714.44757C432.03589,710.64548 430.03767,706.23456 428.41739,701.1197C412.91784,678.00174 424.35395,652.43637 435.49311,642.55806C436.40963,641.74528 437.65013,641.40129 438.85435,641.62599C440.05857,641.8507 441.09153,642.61892 441.65326,643.70754C455.68064,670.89269 441.30751,693.69994 436.46371,700.1744C444.43922,723.39083 461.46708,728.83054 465.20252,729.76154C483.98739,730.12754 502.22297,727.02145 519.35542,721.28705C514.16455,720.65946 508.51958,719.33067 503.02373,716.80559C500.50569,717.98033 495.91996,719.40246 489.56165,718.48025C480.82547,717.21315 468.07142,711.29853 452.77493,691.65368C451.84217,690.45577 451.67456,688.83067 452.34319,687.46759C453.01181,686.10451 454.39949,685.24232 455.91772,685.24667C478.76079,685.31213 499.12307,689.50318 506.14994,709.50736C521.73839,716.79329 538.82305,712.78282 538.82305,712.78282C539.33433,712.66331 539.84581,712.6487 540.33488,712.72493C545.02151,710.45687 549.59505,707.99632 554.04183,705.36407C551.51782,705.37168 548.77936,705.21431 545.82607,704.83599C525.54649,702.23813 514.30564,685.03579 514.30564,685.03579C513.46973,683.75607 513.44304,682.11002 514.23703,680.80387C515.03102,679.49772 516.50455,678.76364 518.02542,678.91657C518.02542,678.91657 530.48531,680.16488 545.88185,679.40942C559.59571,678.73652 567.63144,683.84058 574.71093,691.21881C594.2142,675.91571 610.17133,657.33182 620.99793,637.88108ZM312.86388,262.11892L351.26984,262.11892C326.81786,251.1628 318.63383,234.80558 316.24135,228.26101C312.89998,224.88524 309.5386,221.67853 306.16041,218.63602C311.77416,230.88363 314.46267,245.09048 313.35358,260.47588C313.31129,261.06261 313.14045,261.62153 312.86388,262.11892ZM39.79187,262.11892L305.21155,262.11892C274.34431,240.0212 279.45128,209.59337 282.09868,199.83775C262.38936,186.67305 242.37479,178.52407 222.65607,174.475C240.74064,186.22582 249.2279,200.88638 251.9044,206.29317C257.45012,209.24839 274.9499,220.74084 278.03498,249.35103C278.17579,250.65687 277.66144,251.9478 276.66119,252.799C275.66094,253.6502 274.30435,253.95141 273.03786,253.60351C267.76184,252.15423 261.97367,248.25198 257.02651,242.51255C250.0294,234.39486 244.67176,222.62191 244.71514,209.66417C242.78258,205.80333 237.15721,196.0185 225.89095,186.69836C228.10957,190.50045 230.10778,194.91136 231.72806,200.02623C247.22762,223.14418 235.79151,248.70956 224.65235,258.58787C223.73582,259.40065 222.49532,259.74464 221.2911,259.51993C220.08689,259.29523 219.05392,258.52701 218.4922,257.43839C204.46481,230.25324 218.83794,207.44599 223.68174,200.97152C215.70624,177.7551 198.67838,172.31539 194.94293,171.38439C176.15806,171.01839 157.92248,174.12448 140.79003,179.85887C145.9809,180.48646 151.62588,181.81526 157.12172,184.34034C159.63976,183.1656 164.2255,181.74346 170.58381,182.66567C179.31999,183.93277 192.07404,189.84739 207.37052,209.49224C208.30328,210.69016 208.47089,212.31525 207.80227,213.67834C207.13364,215.04142 205.74596,215.90361 204.22773,215.89926C181.38466,215.83379 161.02239,211.64275 153.99551,191.63857C138.40706,184.35264 121.32241,188.36311 121.32241,188.36311C120.81113,188.48261 120.29965,188.49723 119.81058,188.421C115.12394,190.68906 110.55041,193.14961 106.10362,195.78186C108.62764,195.77425 111.3661,195.93162 114.31939,196.30994C134.59896,198.90779 145.83981,216.11013 145.83981,216.11013C146.67573,217.38986 146.70242,219.0359 145.90843,220.34205C145.11444,221.64821 143.6409,222.38229 142.12003,222.22936C142.12003,222.22936 129.66014,220.98104 114.26361,221.7365C100.54975,222.4094 92.51402,217.30535 85.43452,209.92711C66.31461,224.92943 50.60279,243.08482 39.79187,262.11892ZM321.33207,25.35556C321.92854,34.78966 324.60591,46.53867 329.3675,56.41878C332.98683,63.92873 337.77424,70.4345 344.02075,73.59629C344.87217,65.59545 344.13895,46.81452 324.43136,25.28437C323.397,25.30294 322.3639,25.32668 321.33207,25.35556ZM338.73144,874.64266C337.99847,865.41547 335.34829,854.21042 330.77795,844.72714C327.15863,837.2172 322.37121,830.71143 316.1247,827.54963C315.28824,835.41 315.98125,853.67525 334.69351,874.73011C336.04162,874.70971 337.38761,874.68054 338.73144,874.64266ZM253.26258,216.75114C254.68498,224.82281 258.45079,232.00747 263.03878,237.33022C264.89583,239.48467 266.88116,241.33829 268.89829,242.79713C265.69709,229.04369 258.50104,220.99049 253.26258,216.75114ZM296.8505,196.15641C304.82584,197.29559 312.5671,196.71212 319.05318,194.61061C321.86668,193.69903 324.43923,192.5055 326.66073,191.03268C312.91473,189.31776 302.88144,192.85483 296.8505,196.15641ZM118.1462,161.29187C118.1462,161.29187 111.99168,164.60072 106.05899,173.77427C100.04672,183.07089 101.88453,186.59157 101.88453,186.59157C112.87519,176.36634 117.51245,168.33605 118.1462,161.29187ZM176.81389,123.27444C176.81389,123.27444 166.75864,128.95239 161.93585,139.64203C157.11306,150.33168 157.02114,161.50431 157.02114,161.50431C163.94358,154.98152 175.29494,141.64763 176.81389,123.27444ZM162.23837,190.91065C165.83871,199.09903 172.68174,203.37258 181.11238,205.60442C185.56488,206.78313 190.44039,207.41077 195.5497,207.71504C178.90583,189.25339 167.18475,189.53319 162.23837,190.91065ZM307.92804,154.38006C307.92804,154.38006 291.13192,154.94125 278.90263,159.67614C267.53417,164.07774 260.46034,175.1694 260.46034,175.1694C285.10764,172.76788 299.38851,165.38224 307.92804,154.38006ZM92.70151,205.96109C97.92933,210.93274 104.04843,214.29068 113.8746,213.80854C121.29186,213.4446 128.0553,213.52874 133.18531,213.72461C128.7969,209.76087 122.08433,205.30701 113.31082,204.1831C103.57969,202.93653 96.70571,204.48193 92.70151,205.96109ZM305.65041,252.39604C305.65041,252.39604 305.00904,237.0713 300.93725,227.06223C296.93278,217.21862 288.83972,206.05761 288.83972,206.05761C287.04885,216.17468 286.63224,236.1929 305.65041,252.39604ZM324.57668,227.5889C328.10229,235.28341 339.22429,252.34067 370.57763,260.39058C365.45903,251.92662 356.23348,241.71082 345.94508,234.88108C338.99953,230.27042 331.56206,227.1195 324.57668,227.5889ZM223.19551,248.50221C223.19551,248.50221 230.04668,241.24983 231.06315,228.31917C232.06683,215.55112 227.7703,209.01822 227.7703,209.01822C223.3143,216.16917 216.65495,230.95759 223.19551,248.50221ZM228.02226,130.31436C228.02226,130.31436 217.08052,132.2593 207.35937,136.84439C198.33204,141.10222 195.60333,150.20487 195.60333,150.20487C212.00282,150.4717 220.55249,140.80927 228.02226,130.31436ZM532.37756,210.54726C530.41962,203.60364 526.87158,197.59277 518.17569,192.99195C511.61162,189.51903 505.83849,185.99451 501.52703,183.20764C503.27759,188.85609 506.7766,196.11229 513.74753,201.55689C521.47933,207.59578 528.17926,209.77543 532.37756,210.54726ZM464.89889,187.99689C465.98233,179.1178 462.27911,171.95007 456.16852,165.72772C452.94132,162.44149 449.06909,159.41323 444.83076,156.54372C449.72018,180.91469 459.94229,186.65669 464.89889,187.99689ZM441.87574,107.35884C441.87574,107.35884 432.2825,110.09842 424.80841,120.69904C417.42831,131.16635 417.78853,138.97718 417.78853,138.97718C425.27031,135.10229 438.54511,125.78435 441.87574,107.35884ZM487.69712,235.97222C487.69712,235.97222 494.67844,236.26821 504.46245,231.40775C514.37771,226.48208 514.59433,222.5165 514.59433,222.5165C499.92404,225.69966 491.83755,230.23821 487.69712,235.97222ZM417.84244,238.7196C417.84244,238.7196 429.38734,238.96932 438.99076,232.23862C448.59417,225.50792 454.37589,215.94718 454.37589,215.94718C445.09376,218.02299 428.52659,223.69527 417.84244,238.7196ZM377.40021,206.52825C377.40021,206.52825 387.80204,210.44056 398.50184,211.45954C408.43795,212.4058 415.43058,205.97095 415.43058,205.97095C401.46439,197.37094 389.18044,201.31605 377.40021,206.52825ZM320.97049,145.04834C320.97049,145.04834 335.70038,153.13876 348.63345,155.30911C360.65615,157.32668 372.40049,151.39925 372.40049,151.39925C349.97981,140.88402 333.92955,139.94597 320.97049,145.04834ZM351.81965,114.77784C345.54289,109.72749 338.58816,106.27797 331.93795,104.77452C329.05326,104.12237 326.23185,103.83565 323.56977,103.96828C334.51502,112.45915 344.9483,114.53867 351.81965,114.77784ZM372.95793,61.92419C372.95793,61.92419 365.68748,75.42973 364.08014,86.11511C362.49937,96.62385 363.76208,110.35234 363.76208,110.35234C370.466,102.56647 381.04186,85.56489 372.95793,61.92419ZM399.81399,119.31578C402.71074,111.64871 403.13957,103.5483 401.91104,96.62933C401.41378,93.8288 400.65266,91.22147 399.66267,88.9374C395.39551,102.39831 397.47313,112.99646 399.81399,119.31578ZM567.44394,695.18484C562.21612,690.21319 556.09703,686.85524 546.27085,687.33738C538.8536,687.70133 532.09015,687.61718 526.96015,687.42131C531.34856,691.38505 538.06113,695.83892 546.83463,696.96282C556.56576,698.2094 563.43975,696.66399 567.44394,695.18484ZM497.90708,710.23528C494.30674,702.04689 487.46372,697.77335 479.03307,695.54151C474.58057,694.3628 469.70506,693.73516 464.59576,693.43089C481.23962,711.89254 492.96071,711.61273 497.90708,710.23528ZM436.94994,652.64372C436.94994,652.64372 430.09877,659.89609 429.08231,672.82676C428.07862,685.59481 432.37516,692.1277 432.37516,692.1277C436.83115,684.97676 443.4905,670.18834 436.94994,652.64372ZM541.99926,739.85406C541.99926,739.85406 548.15377,736.54521 554.08646,727.37165C560.09874,718.07504 558.26092,714.55436 558.26092,714.55436C547.27026,724.77959 542.633,732.80988 541.99926,739.85406ZM483.33156,777.87149C483.33156,777.87149 493.38681,772.19354 498.2096,761.50389C503.03239,750.81425 503.12432,739.64162 503.12432,739.64162C496.20187,746.1644 484.85052,759.4983 483.33156,777.87149ZM406.88287,684.39479C405.46047,676.32311 401.69467,669.13846 397.10667,663.81571C395.24962,661.66126 393.2643,659.80763 391.24716,658.3488C394.44836,672.10224 401.64442,680.15544 406.88287,684.39479ZM363.29495,704.98952C355.31961,703.85034 347.57836,704.4338 341.09227,706.53531C338.27878,707.4469 335.70622,708.64043 333.48472,710.11325C347.23072,711.82816 357.26401,708.2911 363.29495,704.98952ZM432.1232,770.83157C432.1232,770.83157 443.06493,768.88663 452.78608,764.30154C461.81341,760.04371 464.54212,750.94106 464.54212,750.94106C448.14263,750.67422 439.59296,760.33665 432.1232,770.83157ZM354.49505,648.74989C354.49505,648.74989 355.13642,664.07462 359.2082,674.08369C363.21267,683.92731 371.30573,695.08831 371.30573,695.08831C373.09661,684.97124 373.51322,664.95302 354.49505,648.74989ZM335.56877,673.55703C332.04316,665.86252 320.92116,648.80526 289.56783,640.75535C294.68643,649.21931 303.91198,659.43511 314.20037,666.26485C321.14592,670.87551 328.5834,674.02642 335.56877,673.55703ZM352.21742,746.76586C352.21742,746.76586 369.01354,746.20467 381.24282,741.46978C392.61129,737.06818 399.68512,725.97653 399.68512,725.97653C375.03782,728.37804 360.75695,735.76369 352.21742,746.76586ZM195.24656,713.14904C194.16312,722.02813 197.86635,729.19585 203.97693,735.41821C207.20413,738.70443 211.07636,741.7327 215.31469,744.60221C210.42527,720.23124 200.20317,714.48923 195.24656,713.14904ZM127.76789,690.59867C129.72584,697.54228 133.27387,703.55316 141.96977,708.15398C148.53383,711.62689 154.30696,715.15142 158.61842,717.93828C156.86786,712.28984 153.36885,705.03364 146.39793,699.58903C138.66613,693.55015 131.96619,691.3705 127.76789,690.59867ZM218.26971,793.78709C218.26971,793.78709 227.86295,791.04751 235.33705,780.44689C242.71715,769.97958 242.35693,762.16874 242.35693,762.16874C234.87514,766.04363 221.60034,775.36158 218.26971,793.78709ZM172.44834,665.1737C172.44834,665.1737 165.46701,664.87772 155.683,669.73818C145.76774,674.66384 145.55113,678.62942 145.55113,678.62942C160.22141,675.44626 168.30791,670.90772 172.44834,665.1737ZM242.30301,662.42633C242.30301,662.42633 230.75811,662.17661 221.1547,668.90731C211.55129,675.63801 205.76956,685.19874 205.76956,685.19874C215.05169,683.12294 231.61886,677.45065 242.30301,662.42633ZM282.74524,694.61768C282.74524,694.61768 272.34341,690.70536 261.64362,689.68638C251.7075,688.74013 244.71488,695.17498 244.71488,695.17498C258.68106,703.77499 270.96502,699.82987 282.74524,694.61768ZM339.17497,756.09758C339.17497,756.09758 324.44507,748.00717 311.51201,745.83682C299.4893,743.81924 287.74497,749.74668 287.74497,749.74668C310.16564,760.2619 326.2159,761.19996 339.17497,756.09758ZM308.3258,786.36809C314.60257,791.41844 321.5573,794.86796 328.20751,796.3714C331.0922,797.02356 333.91361,797.31028 336.57569,797.17764C325.63043,788.68677 315.19716,786.60725 308.3258,786.36809ZM287.18753,839.22173C287.18753,839.22173 294.45797,825.7162 296.06531,815.03082C297.64608,804.52208 296.38338,790.79359 296.38338,790.79359C289.67945,798.57946 279.10359,815.58104 287.18753,839.22173ZM260.33146,781.83014C257.43472,789.49722 257.00588,797.59763 258.23442,804.5166C258.73168,807.31713 259.4928,809.92445 260.48278,812.20852C264.74994,798.74761 262.67233,788.14946 260.33146,781.83014Z"/>
            </g>
        </g>
    </g>
</svg>
