<?xml version="1.0" encoding="UTF-8" standalone="no"?>
<!DOCTYPE svg PUBLIC "-//W3C//DTD SVG 1.1//EN" "http://www.w3.org/Graphics/SVG/1.1/DTD/svg11.dtd">
<svg width="100%" height="100%" viewBox="0 0 2599 3544" version="1.1" xmlns="http://www.w3.org/2000/svg" xmlns:xlink="http://www.w3.org/1999/xlink" xml:space="preserve" xmlns:serif="http://www.serif.com/" style="fill-rule:evenodd;clip-rule:evenodd;stroke-linejoin:round;stroke-miterlimit:2;">
    <g transform="matrix(1,0,0,1,-14566.426514,-3833.621427)">
        <g id="final_popout" transform="matrix(1.047619,0,0,1.010101,14566.426514,3833.621427)">
            <rect x="0" y="0" width="2480.31496" height="3507.87402" style="fill:none;"/>
            <g transform="matrix(8.750056,0,0,9.075058,-25634.419782,-12846.47775)">
                <path d="M2962.24905,1582.94998C2960.62979,1583.11751 2958.71629,1583.39166 2956.50845,1583.7717L2956.50607,1583.7721L2956.15347,1583.83087L2956.15347,1583.86085C2956.15347,1584.09995 2956.07909,1584.42141 2955.90974,1584.8199C2955.76567,1585.15888 2955.49184,1585.65975 2955.08506,1586.32076C2954.69189,1586.95967 2954.12687,1587.81974 2953.3898,1588.9008C2950.29962,1593.4957 2948.10178,1597.2363 2946.79932,1600.12438C2945.51278,1602.97714 2944.76348,1605.73746 2944.55553,1608.40645C2944.52385,1608.85046 2944.50796,1609.27861 2944.50796,1609.69093C2944.50796,1611.71218 2944.95005,1613.29481 2945.86966,1614.43172C2946.28785,1614.91614 2946.83936,1615.21027 2947.52021,1615.32143L2947.5217,1615.32168C2947.89878,1615.38452 2948.15648,1615.47652 2948.30312,1615.57079L2948.47102,1615.71359L2948.59484,1615.89896C2948.65019,1616.01362 2948.68277,1616.149 2948.68277,1616.30714C2948.68277,1616.88612 2948.25933,1617.32321 2947.22725,1617.32321C2947.06842,1617.32321 2946.89193,1617.31458 2946.69781,1617.29693L2946.68586,1617.29568C2945.17029,1617.11738 2943.94007,1616.28371 2943.01286,1614.77237C2941.98277,1613.24816 2941.43547,1611.10301 2941.40164,1608.32929L2941.40161,1608.32375L2941.40161,1606.5171L2941.40185,1606.50245C2941.41862,1605.9825 2941.46058,1605.47095 2941.52767,1604.96777L2941.52812,1604.96448C2942.17077,1600.40002 2943.65342,1596.05789 2945.97684,1591.93834L2945.97975,1591.93327C2946.68489,1590.71976 2947.50474,1589.4324 2948.43947,1588.07131C2949.37092,1586.71498 2950.26195,1585.52937 2951.11217,1584.51422C2950.42825,1584.58426 2949.77608,1584.63576 2949.15569,1584.66876C2948.38049,1584.70999 2947.77023,1584.73044 2947.3249,1584.73044C2947.03637,1584.73044 2946.7733,1584.72184 2946.53568,1584.70487L2946.53431,1584.70477C2943.34877,1584.46755 2941.06039,1583.71522 2939.654,1582.49523C2939.64589,1582.48819 2939.63804,1582.48087 2939.63045,1582.47328C2939.20386,1582.0467 2938.98174,1581.67181 2938.9208,1581.37726C2938.8626,1581.09595 2938.83813,1580.9061 2938.83813,1580.8091C2938.83813,1580.38718 2939.00779,1580.0854 2939.3172,1579.88851L2939.32737,1579.88222C2939.48622,1579.78691 2939.64652,1579.7442 2939.80537,1579.7442C2939.95704,1579.7442 2940.11003,1579.78314 2940.25946,1579.86839C2940.46143,1579.96499 2940.75256,1580.16791 2941.12548,1580.48746C2942.37386,1581.54841 2944.33749,1582.22538 2947.00493,1582.55403C2947.41477,1582.5852 2947.87136,1582.60065 2948.37471,1582.60065C2948.99996,1582.60065 2949.69723,1582.57655 2950.46653,1582.52853C2951.85698,1582.4178 2952.9083,1582.26248 2953.61965,1582.05698C2953.62875,1582.05435 2953.63794,1582.05201 2953.6472,1582.04995C2953.80222,1582.0155 2953.99597,1581.98083 2954.2285,1581.94638C2954.47173,1581.91034 2954.70147,1581.89264 2954.91768,1581.89264C2955.10428,1581.89264 2955.52391,1581.84774 2956.17702,1581.76221C2956.8546,1581.67348 2957.60477,1581.55647 2958.42755,1581.41128L2958.4361,1581.40985C2959.26495,1581.27983 2960.04911,1581.15388 2960.78857,1581.03199C2961.53723,1580.90859 2962.06916,1580.83049 2962.38272,1580.79727C2962.90047,1580.73059 2963.43487,1580.68885 2963.98594,1580.67215C2964.50404,1580.65645 2964.93222,1580.64828 2965.27047,1580.64757C2965.54088,1580.4833 2965.81173,1580.32981 2966.08301,1580.1871C2966.09059,1580.18311 2966.09828,1580.17933 2966.10608,1580.17578C2967.28505,1579.63831 2968.30152,1579.37799 2969.15107,1579.37799C2969.64045,1579.37799 2970.08232,1579.46507 2970.47759,1579.63447L2970.48183,1579.63632C2971.62408,1580.13968 2972.21966,1580.84799 2972.33582,1581.69983C2972.4377,1582.44692 2972.48648,1582.93955 2972.48648,1583.17726C2972.48648,1584.25992 2972.18345,1585.46449 2971.56479,1586.78774L2971.55958,1586.79851C2971.24287,1587.43194 2970.85967,1588.09049 2970.4096,1588.77394L2970.40051,1588.78722C2969.95194,1589.41854 2969.20972,1590.2711 2968.17135,1591.34269C2967.14323,1592.40371 2966.13558,1593.35359 2965.14858,1594.19254L2965.14267,1594.19748C2962.63926,1596.25326 2960.20859,1597.69274 2957.85304,1598.52259C2957.5308,1598.63984 2957.29898,1598.73651 2957.15958,1598.81722C2957.0765,1598.86531 2957.00866,1598.9162 2956.96049,1598.97642C2956.87262,1599.13701 2956.68461,1599.49814 2956.39624,1600.0597C2956.08739,1600.66115 2955.74603,1601.33167 2955.37216,1602.07128C2955.25113,1602.31072 2955.13522,1602.54119 2955.02443,1602.7627C2957.75762,1600.19536 2960.26274,1598.3744 2962.53486,1597.29319L2962.544,1597.28896C2963.41231,1596.89911 2964.16743,1596.71198 2964.80537,1596.71198C2965.83114,1596.71198 2966.59244,1597.17251 2967.08585,1598.0992C2967.32994,1598.55057 2967.45718,1599.08523 2967.45718,1599.70558C2967.45718,1600.69926 2967.12495,1601.93533 2966.44039,1603.40822C2965.92043,1604.59438 2965.52631,1605.49232 2965.25804,1606.10202C2964.99233,1606.70591 2964.80302,1607.14873 2964.69029,1607.43055C2964.59057,1607.67985 2964.52424,1607.88214 2964.49575,1608.03885C2964.49375,1608.04985 2964.49134,1608.06078 2964.48853,1608.07161C2964.38566,1608.4684 2964.33218,1608.8208 2964.33218,1609.12941C2964.33218,1609.21651 2964.33797,1609.29741 2964.35041,1609.37207C2964.37835,1609.5397 2964.40461,1609.66908 2964.5077,1609.71411C2964.55435,1609.72142 2964.60477,1609.72467 2964.65889,1609.72467C2964.89733,1609.72467 2965.18541,1609.62749 2965.52983,1609.45528L2965.53451,1609.45297C2966.08934,1609.18348 2966.89653,1608.66631 2967.95862,1607.90541L2967.96215,1607.90291C2969.4775,1606.83894 2971.69189,1604.7892 2974.60976,1601.75849L2974.61021,1601.75802C2975.30529,1601.03812 2975.89156,1600.43175 2976.36902,1599.93894C2977.60398,1598.27516 2979.0751,1596.9287 2980.78137,1595.8985L2980.789,1595.89399C2982.02298,1595.18141 2983.20692,1594.83209 2984.33662,1594.83209C2984.57034,1594.83209 2984.80406,1594.84997 2985.03777,1594.88579C2986.4829,1595.09034 2987.45565,1595.78976 2987.97464,1596.9575C2987.98174,1596.97347 2987.98792,1596.98984 2987.99313,1597.00653C2988.08821,1597.31077 2988.13589,1597.62451 2988.13589,1597.94777C2988.13589,1598.82576 2987.79153,1599.77173 2987.07488,1600.77514C2986.15004,1602.07653 2984.90982,1603.08 2983.35146,1603.78211C2983.34422,1603.78538 2983.3369,1603.78845 2983.32949,1603.79133C2982.39623,1604.15426 2981.45416,1604.33493 2980.50361,1604.33493C2980.00698,1604.33493 2979.51034,1604.28739 2979.0137,1604.19217C2978.96168,1604.28561 2978.90009,1604.42558 2978.82604,1604.61072C2978.82214,1604.62047 2978.81791,1604.63007 2978.81334,1604.63952C2978.60191,1605.07749 2978.44317,1605.53804 2978.33679,1606.02183C2978.262,1606.42779 2978.22378,1606.79628 2978.22378,1607.12746C2978.22378,1607.74508 2978.34779,1608.24288 2978.62201,1608.61368C2979.00182,1609.11986 2979.34641,1609.41931 2979.71361,1609.43197C2980.17585,1609.44791 2980.42291,1609.45612 2980.45479,1609.45612C2981.31029,1609.45612 2982.20844,1609.17084 2983.15398,1608.61557C2984.0456,1608.09012 2984.99247,1607.40085 2985.99552,1606.54905C2987.01528,1605.68307 2988.47181,1604.31905 2990.36565,1602.45758L2990.36707,1602.4562C2991.00273,1601.83683 2991.61802,1601.24191 2992.21294,1600.67145C2992.81261,1600.09642 2993.26039,1599.67755 2993.55612,1599.41468C2993.56355,1599.40808 2993.5712,1599.40172 2993.57904,1599.39562C2993.98139,1599.08268 2994.32024,1598.95807 2994.56611,1598.95807L2994.56612,1599.41261L2994.56875,1599.41261L2994.57139,1598.95807L2994.59019,1598.95807L2994.59036,1599.41261L2994.59053,1599.41261C2994.60446,1599.41515 2994.61788,1599.41788 2994.63077,1599.4208L2994.67184,1598.9654C2994.89013,1599.00509 2995.03788,1599.08722 2995.13115,1599.17454L2995.26271,1599.34996L2995.32426,1599.57018C2995.33397,1599.68668 2995.33804,1599.7644 2995.33804,1599.80324C2995.33804,1600.02792 2995.2555,1600.28426 2995.05579,1600.55887C2995.05118,1600.56521 2995.04641,1600.57142 2995.04147,1600.57752C2994.48375,1601.26648 2993.15605,1602.66977 2991.05656,1604.78568C2989.25202,1606.62299 2987.74639,1608.03332 2986.54057,1609.01766C2985.30949,1610.02262 2984.1567,1610.76613 2983.08469,1611.25201C2981.84528,1611.81995 2980.69921,1612.0986 2979.64912,1612.0986C2978.70445,1612.0986 2977.83123,1611.86629 2977.02915,1611.40286L2977.0288,1611.40267C2975.36212,1610.43775 2974.42838,1608.68132 2974.28802,1606.10235C2974.28758,1606.09413 2974.28735,1606.08589 2974.28735,1606.07765C2974.28735,1605.51842 2974.33026,1604.97169 2974.41611,1604.43747C2974.20859,1604.64419 2973.99282,1604.85878 2973.7688,1605.08126C2972.08883,1606.76122 2970.78802,1608.0375 2969.86643,1608.91015C2968.92864,1609.79814 2968.181,1610.44463 2967.62497,1610.85128C2967.05336,1611.26932 2966.48569,1611.60583 2965.92261,1611.86191C2965.18595,1612.20307 2964.51947,1612.36716 2963.92647,1612.36716C2963.49871,1612.36716 2963.10033,1612.27867 2962.7309,1612.10367C2962.72384,1612.10033 2962.71687,1612.0968 2962.70999,1612.0931C2961.73664,1611.56899 2961.14492,1610.81911 2960.9203,1609.85512C2960.71526,1608.97515 2960.61548,1608.25284 2960.61548,1607.68898C2960.61548,1606.88768 2960.73366,1606.03508 2960.97235,1605.13149C2960.97397,1605.12535 2960.97572,1605.11924 2960.9776,1605.11317C2961.19324,1604.41648 2961.68879,1603.271 2962.46842,1601.67856L2962.4721,1601.67122C2962.81154,1601.0085 2963.09847,1600.43066 2963.33285,1599.93767C2963.41068,1599.77394 2963.47705,1599.63332 2963.53176,1599.51573C2962.25849,1599.74869 2960.53315,1600.78886 2958.33197,1602.59524C2957.67382,1603.1411 2956.85965,1603.90794 2955.88868,1604.89495C2954.90999,1605.88983 2953.99598,1606.8685 2953.14669,1607.83102C2952.31701,1608.77134 2951.75718,1609.46242 2951.47229,1609.90395C2951.06812,1610.57583 2950.60776,1610.85348 2950.18135,1610.85348C2949.86621,1610.85348 2949.54031,1610.7181 2949.22517,1610.40297C2949.06692,1610.24471 2948.95756,1610.0894 2948.88974,1609.94245C2948.81766,1609.78629 2948.77466,1609.58939 2948.77466,1609.34914C2948.77466,1609.14186 2948.88329,1608.54439 2949.11648,1607.55981C2949.33706,1606.62849 2949.58213,1605.65224 2949.85173,1604.63106C2950.12337,1603.60212 2950.36662,1602.78259 2950.5808,1602.1723C2951.71354,1598.69359 2953.46826,1594.99289 2955.84742,1591.07137L2955.84847,1591.06965C2957.94646,1587.64607 2960.08188,1584.94129 2962.24905,1582.94998ZM2964.07102,1599.42577L2963.71606,1599.07082L2963.71606,1599.07218L2964.07093,1599.42598C2964.07096,1599.42591 2964.07099,1599.42584 2964.07102,1599.42577ZM2964.05615,1599.45945L2963.71886,1599.12133L2963.71901,1599.12259L2964.05607,1599.45965C2964.05609,1599.45958 2964.05612,1599.45952 2964.05615,1599.45945ZM2968.5724,1583.34807C2968.36633,1583.4799 2968.14032,1583.64078 2967.8931,1583.82832C2965.46557,1585.80796 2962.78654,1589.16479 2959.84518,1593.89014C2959.37622,1594.65222 2959.02669,1595.23258 2958.79689,1595.63141C2958.93337,1595.56506 2959.07807,1595.49365 2959.231,1595.41719C2962.01699,1594.02419 2964.4352,1592.29563 2966.48467,1590.23015L2966.48924,1590.2256C2968.0246,1588.72158 2969.03545,1587.33312 2969.50545,1586.04843L2969.50768,1586.04247C2969.8226,1585.21769 2969.9953,1584.63983 2970.0028,1584.30242C2970.00307,1584.29004 2970.00334,1584.27787 2970.00361,1584.26591C2969.88263,1584.25994 2969.71495,1584.21265 2969.51563,1584.08451C2969.39073,1584.00422 2969.21149,1583.867 2968.97954,1583.67074L2968.97383,1583.66582C2968.83625,1583.54544 2968.70255,1583.43934 2968.5724,1583.34807ZM2980.41868,1602.08278L2980.45479,1602.08307C2980.6566,1602.08307 2980.88154,1602.07527 2981.1309,1602.05974C2981.4829,1602.03006 2981.80602,1601.97207 2982.10004,1601.88442L2982.10103,1601.88408C2983.18046,1601.52321 2984.0099,1601.02378 2984.58024,1600.3709C2985.0988,1599.77728 2985.39575,1599.3172 2985.39575,1598.94875C2985.39575,1598.85405 2985.37622,1598.76796 2985.33384,1598.69109C2985.24575,1598.62689 2985.14052,1598.59762 2985.02022,1598.59762C2984.44854,1598.59762 2983.67392,1599.01928 2982.661,1599.79707C2982.36473,1600.0314 2982.01859,1600.35149 2981.62159,1600.75628C2981.21496,1601.17088 2980.85609,1601.56148 2980.54514,1601.92824C2980.50126,1601.97999 2980.4588,1602.03212 2980.41868,1602.08278ZM3041.82579,1602.5439C3041.75231,1602.57645 3041.67881,1602.6082 3041.60529,1602.63915C3040.49793,1603.10541 3039.27001,1603.48063 3037.9212,1603.76371L3037.91114,1603.76571C3037.90044,1603.77506 3037.86892,1603.80319 3037.85102,1603.82522C3037.75844,1603.93917 3037.6444,1604.1406 3037.50197,1604.42546L3037.49976,1604.42982C3037.18379,1605.04511 3036.76843,1605.73962 3036.25291,1606.51289C3035.73858,1607.28438 3035.23237,1607.96863 3034.73464,1608.56591L3034.72649,1608.57542C3032.56641,1611.02693 3030.42227,1612.22067 3028.33076,1612.22067C3028.13969,1612.22067 3027.93993,1612.21206 3027.73149,1612.19469C3027.71535,1612.19334 3027.6993,1612.19114 3027.6834,1612.18808C3026.2645,1611.91521 3025.24993,1611.17731 3024.63143,1609.9858C3024.04425,1608.8546 3023.75024,1607.64147 3023.75024,1606.34621C3023.75024,1605.92322 3023.77551,1605.48331 3023.82627,1605.02648C3023.82703,1605.01956 3023.82796,1605.01266 3023.82905,1605.00578C3024.08083,1603.41116 3024.65387,1601.79489 3025.5519,1600.15831C3026.47539,1598.4753 3027.42674,1597.37889 3028.37613,1596.84379C3028.38806,1596.83706 3028.4003,1596.83088 3028.41279,1596.82525C3028.79385,1596.65378 3029.24076,1596.56825 3029.75519,1596.57778C3030.28639,1596.58761 3030.717,1596.70006 3031.05146,1596.8968C3031.06302,1596.90361 3031.07428,1596.91092 3031.08519,1596.91871L3031.0895,1596.92179C3032.078,1595.41322 3033.27846,1594.68561 3034.654,1594.68561C3034.78802,1594.68561 3034.91289,1594.69512 3035.02729,1594.71322C3036.46371,1594.84572 3037.55848,1595.66083 3038.28705,1597.19082L3038.29334,1597.20462C3038.59274,1597.89148 3038.74624,1598.69211 3038.74624,1599.60793C3038.74624,1600.26436 3038.6691,1600.97493 3038.51334,1601.73943C3039.2781,1601.5516 3040.13336,1601.22105 3041.08035,1600.75106C3041.89312,1600.34769 3042.6176,1599.95136 3043.25357,1599.56171C3044.06868,1598.21312 3044.90236,1597.31283 3045.73453,1596.84379C3045.74646,1596.83706 3045.75869,1596.83088 3045.77119,1596.82525C3046.15225,1596.65378 3046.59916,1596.56825 3047.11359,1596.57778C3047.64479,1596.58761 3048.0754,1596.70006 3048.40986,1596.8968C3048.42142,1596.90361 3048.43268,1596.91092 3048.44359,1596.91871L3048.4479,1596.92179C3049.4364,1595.41322 3050.63686,1594.68561 3052.0124,1594.68561C3052.14642,1594.68561 3052.27129,1594.69512 3052.38569,1594.71322C3053.82211,1594.84572 3054.91688,1595.66083 3055.64545,1597.19082L3055.65174,1597.20462C3055.95114,1597.89148 3056.10464,1598.69211 3056.10464,1599.60793C3056.10464,1600.26436 3056.0275,1600.97493 3055.87173,1601.73943C3056.6365,1601.5516 3057.49176,1601.22105 3058.43875,1600.75106C3059.51778,1600.21554 3060.4412,1599.69244 3061.20851,1599.18089C3061.21871,1599.17409 3061.22918,1599.16771 3061.2399,1599.16176C3061.46357,1599.03749 3061.67687,1598.98248 3061.87568,1598.98248C3061.99067,1598.98248 3062.09152,1598.99877 3062.17471,1599.02527C3062.3699,1599.07977 3062.50624,1599.16188 3062.59574,1599.2478L3062.71736,1599.40476L3062.78791,1599.60644C3062.79202,1599.63114 3062.79409,1599.65613 3062.79409,1599.68117L3062.79409,1599.80324C3062.79409,1600.06879 3062.66099,1600.37082 3062.31578,1600.66292C3062.30954,1600.6682 3062.30316,1600.67331 3062.29665,1600.67825C3061.19002,1601.5166 3060.0787,1602.16967 3058.96369,1602.63915C3057.85633,1603.10541 3056.62841,1603.48063 3055.27959,1603.76371L3055.26953,1603.76571C3055.25884,1603.77506 3055.22732,1603.80319 3055.20942,1603.82522C3055.11684,1603.93917 3055.0028,1604.1406 3054.86036,1604.42546L3054.85815,1604.42982C3054.54219,1605.04511 3054.12682,1605.73962 3053.61131,1606.51289C3053.09698,1607.28438 3052.59077,1607.96863 3052.09304,1608.56591L3052.08489,1608.57542C3049.92481,1611.02693 3047.78066,1612.22067 3045.68916,1612.22067C3045.49809,1612.22067 3045.29833,1612.21206 3045.08989,1612.19469C3045.07375,1612.19334 3045.0577,1612.19114 3045.0418,1612.18808C3043.6229,1611.91521 3042.60833,1611.17731 3041.98983,1609.9858C3041.40265,1608.8546 3041.10864,1607.64147 3041.10864,1606.34621C3041.10864,1605.92322 3041.13391,1605.48331 3041.18466,1605.02648C3041.18543,1605.01956 3041.18636,1605.01266 3041.18745,1605.00578C3041.31614,1604.19075 3041.52875,1603.37006 3041.82579,1602.5439ZM3031.34812,1601.24691L3030.93674,1601.69686L3030.9331,1601.7008C3030.23879,1602.44244 3029.61577,1603.27896 3029.06349,1604.20995C3028.51972,1605.12659 3028.14397,1605.95692 3027.94077,1606.70433C3027.83738,1607.13463 3027.78433,1607.52783 3027.78433,1607.88429C3027.78433,1608.15309 3027.81161,1608.40081 3027.86809,1608.62725C3027.99071,1609.10453 3028.20373,1609.43686 3028.54659,1609.59604L3028.55845,1609.60176C3028.63664,1609.64085 3028.74082,1609.65143 3028.86787,1609.65143C3028.9717,1609.65143 3029.08839,1609.63739 3029.21818,1609.61143C3029.22977,1609.60911 3029.24144,1609.60725 3029.25317,1609.60584C3029.60943,1609.56309 3029.95832,1609.45539 3030.30034,1609.28438L3030.30354,1609.28279C3031.88968,1608.50527 3033.19715,1607.41038 3034.22574,1605.99744C3034.32189,1605.83684 3034.45558,1605.60862 3034.62684,1605.3128C3034.80128,1605.0115 3034.96778,1604.70227 3035.12636,1604.38512L3035.12809,1604.38168L3035.46551,1603.7209L3035.086,1603.60807L3035.08248,1603.60701C3033.46777,1603.11271 3032.22574,1602.32179 3031.34812,1601.24691ZM3036.3333,1602.1714L3036.33857,1602.1714L3036.33857,1601.71686L3036.32803,1601.71698L3036.3333,1602.1714ZM3036.15654,1601.69992C3036.17313,1601.62758 3036.18975,1601.53852 3036.20833,1601.43323C3036.21018,1601.42274 3036.2124,1601.41231 3036.21499,1601.40198C3036.25908,1601.2256 3036.29039,1600.98284 3036.31243,1600.67417C3036.33602,1600.344 3036.3479,1600.03741 3036.3479,1599.75441C3036.3479,1599.30177 3036.33543,1598.9848 3036.30526,1598.80375C3036.27876,1598.64479 3036.20889,1598.46065 3036.10292,1598.2487C3035.95323,1597.94932 3035.80701,1597.71423 3035.6591,1597.54672C3035.56509,1597.44025 3035.48146,1597.36221 3035.38858,1597.33956C3035.10607,1597.27066 3034.91074,1597.23044 3034.80049,1597.23044C3034.49326,1597.23044 3034.19179,1597.37118 3033.88412,1597.62668C3033.4589,1598.04278 3033.22866,1598.46944 3033.22866,1598.92433C3033.22866,1599.47422 3033.56488,1600.03585 3034.18157,1600.64119C3034.51037,1600.92336 3034.88733,1601.17191 3035.31178,1601.38786C3035.6335,1601.55154 3035.91404,1601.6588 3036.15654,1601.69992ZM3048.70652,1601.24691L3048.29513,1601.69686L3048.29149,1601.7008C3047.59719,1602.44244 3046.97417,1603.27896 3046.42189,1604.20995C3045.87812,1605.12659 3045.50237,1605.95692 3045.29917,1606.70433C3045.19577,1607.13463 3045.14273,1607.52783 3045.14273,1607.88429C3045.14273,1608.15309 3045.17001,1608.40081 3045.22649,1608.62725C3045.34911,1609.10453 3045.56213,1609.43686 3045.90499,1609.59604L3045.91685,1609.60176C3045.99503,1609.64085 3046.09922,1609.65143 3046.22627,1609.65143C3046.3301,1609.65143 3046.44679,1609.63739 3046.57658,1609.61143C3046.58816,1609.60911 3046.59984,1609.60725 3046.61157,1609.60584C3046.96783,1609.56309 3047.31672,1609.45539 3047.65873,1609.28438L3047.66194,1609.28279C3049.24808,1608.50527 3050.55555,1607.41038 3051.58414,1605.99744C3051.68029,1605.83684 3051.81398,1605.60862 3051.98524,1605.3128C3052.15968,1605.0115 3052.32618,1604.70227 3052.48475,1604.38512L3052.48649,1604.38168L3052.82391,1603.7209L3052.44439,1603.60807L3052.44087,1603.60701C3050.82617,1603.11271 3049.58414,1602.32179 3048.70652,1601.24691ZM3053.6917,1602.1714L3053.69697,1602.1714L3053.69697,1601.71686L3053.68643,1601.71698L3053.6917,1602.1714ZM3053.51494,1601.69992C3053.53152,1601.62758 3053.54815,1601.53852 3053.56673,1601.43323C3053.56858,1601.42274 3053.5708,1601.41231 3053.57338,1601.40198C3053.61748,1601.2256 3053.64878,1600.98284 3053.67083,1600.67417C3053.69442,1600.344 3053.7063,1600.03741 3053.7063,1599.75441C3053.7063,1599.30177 3053.69383,1598.9848 3053.66365,1598.80375C3053.63716,1598.64479 3053.56729,1598.46065 3053.46132,1598.2487C3053.31162,1597.94932 3053.16541,1597.71423 3053.0175,1597.54672C3052.92349,1597.44025 3052.83986,1597.36221 3052.74698,1597.33956C3052.46447,1597.27066 3052.26913,1597.23044 3052.15889,1597.23044C3051.85166,1597.23044 3051.55019,1597.37118 3051.24252,1597.62668C3050.8173,1598.04278 3050.58706,1598.46944 3050.58706,1598.92433C3050.58706,1599.47422 3050.92328,1600.03585 3051.53997,1600.64119C3051.86876,1600.92336 3052.24573,1601.17191 3052.67018,1601.38786C3052.9919,1601.55154 3053.27243,1601.6588 3053.51494,1601.69992ZM3115.0169,1605.35003C3114.42206,1605.98839 3113.89866,1606.53999 3113.44671,1607.00486L3113.44221,1607.00941C3112.5452,1607.90642 3111.82599,1608.56171 3111.28612,1608.977C3110.7208,1609.41186 3110.15048,1609.74123 3109.57646,1609.96736L3109.57607,1609.96751C3109.06404,1610.16867 3108.56083,1610.26755 3108.06709,1610.26755C3107.59121,1610.26755 3107.11514,1610.17738 3106.64355,1609.99652C3105.68019,1609.65101 3104.92339,1609.00849 3104.37792,1608.06339C3104.06103,1607.51757 3103.84267,1606.99305 3103.71942,1606.49125C3103.59992,1606.0047 3103.52114,1605.36902 3103.487,1604.58372L3103.48682,1604.57888L3103.47734,1604.28979L3103.19287,1604.6338C3102.42342,1605.56694 3101.55172,1606.56559 3100.57766,1607.62968C3099.59445,1608.70378 3098.879,1609.43848 3098.43275,1609.83517C3097.64366,1610.53846 3096.89131,1611.04606 3096.17941,1611.36342C3095.43313,1611.69609 3094.78821,1611.85446 3094.24873,1611.85446C3093.93417,1611.85446 3093.62888,1611.81725 3093.33282,1611.74323L3093.31945,1611.73967C3092.47052,1611.49976 3091.71842,1610.80373 3091.10935,1609.60432C3090.68698,1608.77702 3090.47388,1607.86218 3090.47388,1606.8589C3090.47388,1606.65332 3090.48234,1606.44775 3090.49921,1606.24358C3090.60192,1604.3126 3091.27533,1602.41379 3092.52881,1600.5505L3092.53026,1600.54837C3094.40548,1597.79467 3096.75029,1596.06133 3099.55467,1595.3349C3099.56062,1595.33336 3099.56659,1595.33194 3099.57259,1595.33064C3100.2052,1595.19386 3100.87195,1595.12506 3101.57295,1595.12506L3101.79268,1595.12506L3101.80277,1595.12517C3102.59143,1595.1427 3103.25685,1595.25142 3103.80015,1595.4442C3103.81238,1595.44854 3103.82442,1595.4534 3103.83624,1595.45877C3104.22659,1595.63621 3104.64038,1595.90486 3105.07509,1596.2686C3105.40467,1596.54437 3105.66036,1596.81022 3105.84601,1597.0627C3106.03365,1596.832 3106.26511,1596.59118 3106.54143,1596.34118C3106.91374,1596.00432 3107.24319,1595.75804 3107.52686,1595.59848C3107.5333,1595.59486 3107.53982,1595.59139 3107.54643,1595.58809C3107.91812,1595.40224 3108.23622,1595.32037 3108.49434,1595.32037L3108.84834,1595.32037C3109.2266,1595.32037 3109.55434,1595.38416 3109.83306,1595.50361C3109.84777,1595.50992 3109.86213,1595.51699 3109.8761,1595.52481C3110.37861,1595.80622 3110.71774,1596.16051 3110.9087,1596.57257C3111.09617,1596.9771 3111.18277,1597.33907 3111.18277,1597.6548C3111.18277,1597.85435 3111.15419,1598.05396 3111.09666,1598.25209C3111.02152,1598.61545 3110.87682,1598.98841 3110.65901,1599.36957C3110.45857,1599.72033 3110.10891,1600.23841 3109.60741,1600.92398C3108.16572,1602.97122 3107.423,1604.69929 3107.423,1606.12648C3107.423,1606.49679 3107.47914,1606.84586 3107.59308,1607.17344C3107.59524,1607.17964 3107.59726,1607.18588 3107.59914,1607.19216C3107.72829,1607.62266 3108.00279,1607.84479 3108.4333,1607.84479L3108.57979,1607.84479C3109.3065,1607.84479 3110.22344,1607.33644 3111.36541,1606.38727L3111.36716,1606.38583C3112.63842,1605.33985 3114.28618,1603.61642 3116.31376,1601.21872C3116.32192,1601.20906 3116.33049,1601.19975 3116.33943,1601.19081C3116.38837,1601.14187 3116.4314,1601.09312 3116.4681,1601.04418C3116.4742,1601.03606 3116.48056,1601.02814 3116.48719,1601.02044C3116.60789,1600.88017 3116.72372,1600.74607 3116.83468,1600.61814C3116.96664,1600.39712 3117.10421,1600.17959 3117.24739,1599.96555C3118.12911,1598.64742 3118.96721,1597.888 3119.71534,1597.63862C3119.72899,1597.63407 3119.74285,1597.63017 3119.75687,1597.62694C3120.00387,1597.56994 3120.24144,1597.54205 3120.46943,1597.54205C3121.02537,1597.54205 3121.50916,1597.72757 3121.92097,1598.09819L3121.92185,1598.09899C3122.35883,1598.49435 3122.58413,1599.01169 3122.58413,1599.65675C3122.58413,1599.84923 3122.56497,1600.04171 3122.52648,1600.23418C3122.52506,1600.24125 3122.52348,1600.24828 3122.52173,1600.25528C3122.47435,1600.4448 3122.31653,1600.77759 3122.04354,1601.25095C3122.73614,1600.36644 3123.343,1599.62905 3123.86395,1599.03864L3123.86956,1599.0324C3126.59176,1596.05968 3129.31303,1594.21654 3132.01853,1593.48125C3132.47001,1593.35498 3132.87672,1593.29401 3133.23799,1593.29401C3133.83795,1593.29401 3134.33588,1593.46107 3134.73336,1593.77694C3135.5061,1594.34547 3135.91421,1595.2248 3135.91421,1596.4341C3135.91421,1597.75464 3135.39945,1599.51161 3134.34594,1601.69743C3134.84291,1601.4071 3135.23106,1601.26542 3135.50052,1601.25344C3135.8796,1601.23659 3136.07759,1601.22858 3136.09443,1601.22858C3136.96346,1601.22858 3137.57951,1601.58898 3137.95422,1602.28787C3138.16767,1602.64258 3138.28237,1603.08258 3138.28237,1603.61183C3138.28237,1603.72559 3138.27354,1603.84856 3138.2552,1603.98069C3138.20316,1604.5689 3138.01307,1605.45585 3137.67941,1606.64035L3137.6787,1606.64285C3137.38539,1607.66171 3137.23257,1608.42467 3137.23257,1608.9341C3137.23257,1609.29121 3137.31054,1609.55768 3137.52697,1609.70918C3137.54213,1609.71979 3137.55663,1609.73132 3137.57038,1609.7437C3137.65431,1609.81923 3137.76679,1609.84674 3137.90107,1609.84674C3138.15392,1609.84674 3138.45043,1609.75035 3138.79643,1609.57735L3138.80701,1609.57223C3139.53904,1609.22958 3140.32006,1608.68987 3141.15332,1607.95785C3142.0135,1607.20218 3143.10208,1606.07601 3144.42049,1604.58075L3144.4217,1604.57938C3145.72588,1603.11217 3146.74479,1601.97917 3147.4784,1601.18035C3147.72147,1600.91568 3147.9427,1600.67871 3148.14203,1600.46941C3148.1738,1600.40626 3148.20606,1600.34292 3148.23881,1600.2794C3148.98746,1598.813 3149.72009,1597.79257 3150.41953,1597.20595C3150.9609,1596.75189 3151.49643,1596.54108 3152.0124,1596.54108C3152.2839,1596.54108 3152.55584,1596.60098 3152.82557,1596.72394C3153.12282,1596.84466 3153.40788,1597.04526 3153.67565,1597.33286C3153.94749,1597.62484 3154.12011,1597.925 3154.20351,1598.22452C3154.2833,1598.44961 3154.32241,1598.67483 3154.32241,1598.89992C3154.32241,1599.12469 3154.28317,1599.35997 3154.20143,1599.60518L3154.19953,1599.61077C3154.06195,1600.00631 3153.75632,1600.58453 3153.27479,1601.34122L3153.27416,1601.34221C3153.01563,1601.74616 3152.76113,1602.15416 3152.51068,1602.56619C3152.26068,1602.97749 3152.06274,1603.30468 3151.91628,1603.5488C3151.19468,1604.82377 3150.78249,1605.76322 3150.70562,1606.37817C3150.62778,1607.00093 3150.58706,1607.41334 3150.58706,1607.61574C3150.58706,1608.22966 3150.7369,1608.70771 3151.07429,1609.03799C3151.24207,1609.17844 3151.46783,1609.23639 3151.74385,1609.23639C3152.03289,1609.23639 3152.37197,1609.17542 3152.76218,1609.05981L3152.77657,1609.0558C3153.48446,1608.87113 3154.43427,1608.26933 3155.6423,1607.27675C3156.91301,1606.23266 3158.75389,1604.52035 3161.16583,1602.1408L3161.16621,1602.14042C3161.37809,1601.93187 3161.58004,1601.7339 3161.77205,1601.5465C3161.917,1600.79217 3162.09313,1600.1135 3162.29985,1599.51037C3163.18892,1596.87644 3164.60724,1594.02363 3166.55795,1590.95351C3168.50497,1587.88923 3170.5635,1585.2485 3172.73232,1583.03038L3172.73448,1583.02819C3174.5896,1581.15636 3176.25691,1579.89193 3177.72763,1579.22342C3177.73478,1579.22017 3177.742,1579.21711 3177.7493,1579.21424C3178.80549,1578.79869 3179.72446,1578.59674 3180.50361,1578.59674C3181.50152,1578.59674 3182.29771,1578.90861 3182.90022,1579.51112C3183.48856,1580.09946 3183.79019,1580.8557 3183.79019,1581.78566C3183.79019,1582.61847 3183.55429,1583.59182 3183.06848,1584.70222L3183.06333,1584.71358C3182.13569,1586.68481 3180.28666,1589.05848 3177.50375,1591.82482L3177.50287,1591.8257C3176.05417,1593.25793 3174.49437,1594.57907 3172.82343,1595.78907C3171.13759,1597.00985 3169.63743,1597.89232 3168.3253,1598.44043L3168.31891,1598.44304L3167.62824,1598.71931L3167.36531,1599.26395C3166.60789,1600.92403 3166.0434,1602.26984 3165.67258,1603.30169C3165.31032,1604.30973 3165.07263,1605.19926 3164.96238,1605.97104L3164.95987,1605.98666C3164.8836,1606.41372 3164.84487,1606.81023 3164.84487,1607.17628C3164.84487,1608.13025 3165.07981,1608.91439 3165.57184,1609.52457C3165.85534,1609.85406 3166.2187,1610.01764 3166.66084,1610.01764C3167.32746,1610.01764 3168.14215,1609.68889 3169.12037,1609.0673C3169.68891,1608.671 3170.41658,1608.02242 3171.30628,1607.12485C3172.21263,1606.21048 3173.03493,1605.28817 3173.77229,1604.35873C3174.19798,1603.80214 3174.69717,1603.17608 3175.26993,1602.48059C3175.84005,1601.7883 3176.36538,1601.15301 3176.84592,1600.57474C3176.94528,1600.45517 3177.0383,1600.34367 3177.12496,1600.24026C3177.18832,1600.11616 3177.25348,1599.99209 3177.32044,1599.86806C3178.0628,1598.49299 3178.87509,1597.39388 3179.75243,1596.56715C3179.75691,1596.56293 3179.76148,1596.5588 3179.76612,1596.55477C3180.48729,1595.92849 3181.17128,1595.63776 3181.79756,1595.63776C3182.37615,1595.63776 3182.9299,1595.8654 3183.44864,1596.34424L3183.45381,1596.34909C3183.88499,1596.75973 3184.10757,1597.29073 3184.10757,1597.94777C3184.10757,1598.09372 3184.09862,1598.24881 3184.08038,1598.413C3184.07922,1598.42343 3184.0777,1598.4338 3184.07582,1598.44412C3184.03721,1598.65651 3183.94047,1598.92376 3183.77634,1599.24236C3183.63188,1599.52278 3183.38248,1599.9185 3183.02586,1600.42806C3181.62653,1602.47085 3180.64009,1604.0706 3180.06901,1605.22886C3179.53017,1606.32171 3179.24917,1607.22897 3179.24917,1607.95753C3179.24917,1608.1901 3179.24878,1608.35749 3179.30373,1608.45091C3179.32809,1608.4568 3179.42701,1608.47955 3179.50264,1608.47955C3179.7296,1608.47955 3180.04886,1608.33879 3180.47608,1608.09848C3180.966,1607.8229 3181.41034,1607.50944 3181.8107,1607.15583C3182.31929,1606.67759 3183.01556,1605.85885 3183.90273,1604.70236C3184.80957,1603.52023 3185.67189,1602.3381 3186.48966,1601.15597C3187.28384,1600.00796 3187.78767,1599.19889 3187.99385,1598.72583C3188.4624,1597.55606 3188.97245,1596.81532 3189.4769,1596.47301C3189.48741,1596.46588 3189.49822,1596.45919 3189.50928,1596.45297C3189.84361,1596.26491 3190.17905,1596.17487 3190.51338,1596.17487C3190.74439,1596.17487 3190.96516,1596.21596 3191.17478,1596.29715C3191.72244,1596.46494 3192.14466,1596.82773 3192.43081,1597.39713C3192.59292,1597.70314 3192.67691,1598.04899 3192.67691,1598.43605C3192.67691,1598.56752 3192.66776,1598.70839 3192.64898,1598.85864C3192.64811,1598.86561 3192.64708,1598.87257 3192.64588,1598.87949C3192.56217,1599.36505 3192.33132,1600.13443 3191.94805,1601.18577C3191.73526,1601.96974 3191.48206,1602.79418 3191.18835,1603.65907C3190.46849,1605.81859 3189.75946,1607.79861 3189.06131,1609.59917C3190.90555,1608.52963 3192.93059,1607.17299 3195.13692,1605.52998C3197.79123,1603.55337 3199.99833,1601.64596 3201.75711,1599.8065L3201.76423,1599.79921C3202.09224,1599.47121 3202.37042,1599.2448 3202.59346,1599.1136C3202.81531,1598.9831 3203.00762,1598.93366 3203.15986,1598.93366L3203.29257,1598.94442L3203.42933,1598.98091L3203.5613,1599.04705L3203.67659,1599.14003L3203.76957,1599.25532L3203.83571,1599.38729L3203.8722,1599.52404L3203.88296,1599.65675C3203.88296,1599.93975 3203.66749,1600.42084 3203.14192,1601.04748C3203.13671,1601.0537 3203.13133,1601.05977 3203.12579,1601.0657C3201.0274,1603.31163 3198.51952,1605.56616 3195.60145,1607.82848C3192.73396,1610.05159 3190.05577,1611.82325 3187.56785,1613.14486C3187.22762,1613.89785 3186.88014,1614.62908 3186.5254,1615.33855L3186.52479,1615.33977C3185.42826,1617.51645 3184.23359,1619.62771 3182.94078,1621.67354C3180.85845,1625.09999 3178.74261,1628.00155 3176.59602,1630.37785C3175.7366,1631.35291 3174.91824,1632.18727 3174.14145,1632.88143L3174.14026,1632.88249C3172.72251,1634.14049 3171.54265,1635.03078 3170.60415,1635.55794C3169.91618,1635.94437 3169.34114,1636.14065 3168.88737,1636.16992C3167.86171,1636.2361 3167.25785,1636.26852 3167.07588,1636.26852C3165.36002,1636.26852 3164.03343,1635.67624 3163.08609,1634.51453C3162.28901,1633.54015 3161.88501,1632.35506 3161.88501,1630.95558C3161.88501,1630.50838 3161.92754,1630.044 3162.01287,1629.56482C3162.31862,1627.59944 3163.47361,1625.57491 3165.50671,1623.50793C3165.51101,1623.50356 3165.5154,1623.49927 3165.51988,1623.49507C3167.62748,1621.5192 3170.10508,1619.71558 3172.95363,1618.08548C3175.77816,1616.46914 3178.34157,1615.09773 3180.64378,1613.97105C3181.42379,1613.58105 3182.11375,1613.2326 3182.71364,1612.92572C3183.69161,1610.63511 3184.50636,1608.64771 3185.1578,1606.96348L3185.15916,1606.96002C3185.33956,1606.50471 3185.51657,1606.06072 3185.69019,1605.62805C3184.52366,1607.259 3183.53696,1608.48303 3182.73201,1609.30162C3181.69859,1610.35256 3180.72589,1610.9699 3179.8341,1611.18135C3179.48459,1611.27302 3179.16237,1611.31735 3178.86787,1611.31735C3178.56229,1611.31735 3178.25663,1611.27008 3177.95104,1611.17459L3177.9407,1611.17122C3176.84586,1610.80009 3176.08591,1609.94309 3175.69622,1608.56991C3175.69351,1608.56037 3175.69112,1608.55075 3175.68904,1608.54106C3175.58601,1608.06024 3175.53247,1607.45081 3175.53247,1606.71242L3175.53247,1606.39503C3175.53247,1605.97584 3175.54993,1605.57394 3175.58467,1605.18931C3174.04061,1607.03398 3172.76643,1608.44363 3171.76274,1609.4188C3170.269,1610.8701 3168.94668,1611.78122 3167.8105,1612.17125C3167.3332,1612.33647 3166.93745,1612.41882 3166.62538,1612.42799C3166.34147,1612.43634 3166.16612,1612.4404 3166.09932,1612.4404C3165.62327,1612.4404 3165.21169,1612.38267 3164.86381,1612.27281C3164.85216,1612.26914 3164.84066,1612.26499 3164.82934,1612.26038C3163.2834,1611.63122 3162.32156,1610.59822 3161.92608,1609.17811C3161.55611,1607.84955 3161.37231,1606.58808 3161.37231,1605.39406C3161.37231,1605.16291 3161.37762,1604.93 3161.38824,1604.69531C3159.21351,1606.87619 3157.59535,1608.42768 3156.5343,1609.35034C3155.37366,1610.35959 3154.37832,1611.05465 3153.55476,1611.44211C3153.12835,1611.65512 3152.79388,1611.78986 3152.55372,1611.85212C3152.3123,1611.91471 3151.95055,1611.95834 3151.4677,1611.97622L3151.45088,1611.97653L3151.18232,1611.97653C3150.59008,1611.97653 3150.1655,1611.92052 3149.9064,1611.82798C3149.89949,1611.82551 3149.89265,1611.82288 3149.88588,1611.82008C3148.76452,1611.3573 3147.87651,1610.49217 3147.23573,1609.21062L3147.2298,1609.1983C3146.79588,1608.26104 3146.57739,1607.23731 3146.57739,1606.12648C3146.57739,1605.75783 3146.60208,1605.37959 3146.6516,1604.99179C3146.02069,1605.68646 3145.38015,1606.38692 3144.72996,1607.09316C3144.37164,1607.48405 3143.99705,1607.89122 3143.60617,1608.31467C3143.21701,1608.73625 3142.8765,1609.10919 3142.58464,1609.43348C3142.57931,1609.4394 3142.57382,1609.44519 3142.56819,1609.45082L3142.35694,1609.66203C3140.57742,1611.62917 3138.89046,1612.61497 3137.33532,1612.68409C3137.3286,1612.68439 3137.32187,1612.68454 3137.31514,1612.68454L3136.53389,1612.68454C3136.50662,1612.68454 3136.4794,1612.68208 3136.45258,1612.67721C3136.23488,1612.63763 3135.98625,1612.54377 3135.70998,1612.38725L3135.70779,1612.38607C3134.52944,1611.78373 3133.81182,1610.68648 3133.59343,1609.06987C3133.55827,1608.8231 3133.54028,1608.55 3133.54028,1608.2505C3133.54028,1607.16566 3133.84499,1605.84133 3134.46801,1604.28078C3133.96306,1604.58165 3133.43189,1604.98812 3132.87291,1605.49796C3132.1547,1606.15303 3131.51142,1606.86726 3130.94316,1607.64072L3130.94049,1607.64432C3130.46181,1608.28257 3130.08734,1608.68885 3129.83027,1608.875C3129.50232,1609.11248 3129.1863,1609.21774 3128.89229,1609.21774C3128.8008,1609.21774 3128.69777,1609.20737 3128.58342,1609.1845L3128.57244,1609.18216C3127.88328,1609.02655 3127.45427,1608.56403 3127.32088,1607.76371C3127.31676,1607.73901 3127.3147,1607.71402 3127.3147,1607.68898L3127.3147,1607.61574C3127.3147,1607.26744 3127.40526,1606.70926 3127.59682,1605.943C3127.79664,1605.14372 3128.03813,1604.37776 3128.32114,1603.64504C3128.42141,1603.37828 3128.66135,1602.83877 3129.04234,1602.02709C3129.41734,1601.22817 3129.84126,1600.33957 3130.31409,1599.36129L3130.31817,1599.35308C3130.8033,1598.39898 3131.20764,1597.57023 3131.53106,1596.86678C3131.76573,1596.35638 3131.92228,1596.00727 3131.99632,1595.81651C3131.80786,1595.82733 3131.56475,1595.8799 3131.26565,1595.96714L3131.26144,1595.96834C3130.76563,1596.10779 3130.25453,1596.30157 3129.72719,1596.54934C3127.62876,1597.63248 3125.50416,1599.56323 3123.34221,1602.32925L3123.34046,1602.33147C3123.03479,1602.71758 3122.5685,1603.36129 3121.94107,1604.26222C3121.30782,1605.1715 3120.65834,1606.12137 3119.99262,1607.11182C3119.20801,1608.28873 3118.61129,1609.16323 3118.20259,1609.7354C3117.76429,1610.34903 3117.42651,1610.74839 3117.19859,1610.94124C3116.89109,1611.20144 3116.57772,1611.31735 3116.27022,1611.31735C3116.01653,1611.31735 3115.71036,1611.19027 3115.39325,1610.86047C3115.13798,1610.59499 3114.95969,1610.28843 3114.85758,1609.94126C3114.8549,1609.93216 3114.85251,1609.92299 3114.85041,1609.91374C3114.7628,1609.52826 3114.71704,1609.05535 3114.71704,1608.49464C3114.71704,1608.12652 3114.73364,1607.71656 3114.76711,1607.26478L3114.76713,1607.26453C3114.81603,1606.6092 3114.89932,1605.97104 3115.0169,1605.35003ZM3132.15263,1595.8205L3132.1524,1595.82046L3132.15974,1595.82777L3132.15263,1595.8205ZM3096.01376,1608.86201L3096.01603,1608.86093C3097.31519,1608.23872 3099.10556,1606.49032 3101.41435,1603.64398C3101.80588,1603.15458 3102.18926,1602.68148 3102.56449,1602.22468C3102.93923,1601.76847 3103.22493,1601.42565 3103.42153,1601.19617C3103.69802,1600.85814 3103.88717,1600.61281 3103.98725,1600.45884C3104.03196,1600.39005 3104.07251,1600.33967 3104.07251,1600.29152L3104.07242,1600.28748C3104.04312,1600.21601 3103.98393,1600.13664 3103.9067,1600.04224C3103.89409,1600.02683 3103.8825,1600.0106 3103.87201,1599.99366C3103.72354,1599.75382 3103.5774,1599.58579 3103.40609,1599.51726C3103.21475,1599.44073 3103.0105,1599.40329 3102.79365,1599.40329C3102.68224,1599.40329 3102.57082,1599.41027 3102.45941,1599.42419C3102.44762,1599.42567 3102.43577,1599.42668 3102.4239,1599.42722C3101.09689,1599.48823 3099.67911,1600.33203 3098.1386,1601.90282C3096.13379,1603.97047 3094.91976,1605.85751 3094.52384,1607.58259C3094.48108,1607.84289 3094.45913,1608.08177 3094.45913,1608.29933C3094.45913,1608.64913 3094.49867,1608.90566 3094.65708,1609.04558C3094.7371,1609.11627 3094.84778,1609.13873 3094.98115,1609.13873C3095.25747,1609.13873 3095.60013,1609.04066 3096.01376,1608.86201ZM3169.2745,1595.53612C3169.33668,1595.50264 3169.39662,1595.4686 3169.45432,1595.43398C3169.461,1595.42997 3169.46779,1595.42613 3169.47466,1595.42248C3171.22052,1594.49349 3173.15683,1593.03761 3175.28709,1591.05951C3177.41776,1589.08103 3179.046,1587.22816 3180.16877,1585.49693C3180.61059,1584.78002 3180.91815,1584.10198 3181.08756,1583.45902C3181.175,1583.06345 3181.22095,1582.73373 3181.22095,1582.46925C3181.22095,1582.12278 3181.17438,1581.89841 3180.91865,1581.89841C3180.6315,1581.89841 3180.25491,1582.04382 3179.77569,1582.30333C3178.16811,1583.27758 3176.28946,1585.16262 3174.12587,1587.9463C3173.25412,1589.10892 3172.32206,1590.47315 3171.32939,1592.03882C3170.50103,1593.34534 3169.81593,1594.51103 3169.2745,1595.53612ZM3172.33851,1630.68987L3172.33916,1630.68917C3174.1548,1628.74409 3175.84918,1626.40103 3177.42398,1623.6612C3178.78242,1621.2978 3180.01629,1618.91366 3181.12554,1616.50876C3180.79114,1616.68666 3180.43488,1616.8755 3180.05676,1617.07526L3180.04641,1617.08056C3178.02011,1618.0856 3175.77909,1619.30554 3173.32322,1620.74015C3170.89078,1622.16109 3168.77458,1623.69767 3166.9753,1625.35133C3165.47221,1626.85546 3164.60063,1628.06688 3164.40866,1629.01905C3164.21367,1629.98622 3164.11245,1630.67206 3164.11245,1631.07765C3164.11245,1631.86331 3164.313,1632.52958 3164.72726,1633.0724L3164.72955,1633.07543C3165.18128,1633.67773 3165.83656,1633.96784 3166.68525,1633.96784C3166.93467,1633.96784 3167.206,1633.93769 3167.49943,1633.87901L3167.51303,1633.8765C3168.89401,1633.64375 3170.49241,1632.56619 3172.33851,1630.68987ZM3155.35713,1587.64503L3155.35713,1587.19049C3156.01071,1587.19049 3156.58576,1587.41652 3157.0809,1587.87205C3157.57884,1588.33015 3157.83804,1588.94344 3157.83804,1589.72023C3157.83804,1590.37853 3157.61708,1590.94148 3157.17821,1591.41027C3156.74674,1591.87117 3156.19914,1592.14399 3155.53231,1592.22244C3155.51468,1592.22451 3155.49695,1592.22555 3155.4792,1592.22555C3155.34036,1592.22555 3155.19719,1592.22124 3155.04968,1592.21256C3154.89254,1592.20332 3154.75856,1592.18903 3154.64764,1592.17054C3154.6105,1592.16435 3154.57427,1592.15357 3154.53979,1592.13845C3153.41983,1591.64724 3152.87622,1590.84972 3152.87622,1589.76906C3152.87622,1588.94999 3153.12028,1588.3582 3153.5539,1587.97504C3154.06889,1587.44632 3154.65627,1587.19049 3155.3083,1587.19049L3155.3083,1587.64503L3155.30874,1587.64503L3155.30919,1587.19049L3155.35205,1587.19049L3155.35459,1587.64503L3155.35713,1587.64503ZM3008.42331,1601.20971C3007.90003,1601.20583 3007.49754,1601.14992 3007.21438,1601.05412C3006.94978,1600.96459 3006.76648,1600.83414 3006.64991,1600.68849C3006.44768,1600.47603 3006.34302,1600.21445 3006.34302,1599.90089L3006.34302,1599.77882C3006.34302,1599.76802 3006.3434,1599.75722 3006.34417,1599.74644C3006.36928,1599.39487 3006.53335,1599.08691 3006.85753,1598.83625C3006.98327,1598.73596 3007.0988,1598.67076 3007.19948,1598.63301C3007.31199,1598.59082 3007.43817,1598.56745 3007.57881,1598.56745L3007.70088,1598.56745C3007.71765,1598.56745 3007.73441,1598.56837 3007.75107,1598.57023C3007.89823,1598.58658 3008.11079,1598.6111 3008.38875,1598.6438C3008.40084,1598.64522 3008.41286,1598.64713 3008.42479,1598.64951C3008.66102,1598.69676 3008.88544,1598.73617 3009.09806,1598.76767C3009.23016,1598.78724 3009.33685,1598.80448 3009.41811,1598.81901C3009.42238,1598.81276 3009.42651,1598.80657 3009.43034,1598.8006C3009.49679,1598.69724 3009.58075,1598.538 3009.68412,1598.32389C3009.79818,1598.08762 3009.95276,1597.77433 3010.1479,1597.38403C3010.80017,1595.98183 3011.52161,1594.49823 3012.31226,1592.93323C3013.10437,1591.36534 3013.74547,1590.13229 3014.23543,1589.23402C3014.72627,1588.33414 3015.28662,1587.35653 3015.91654,1586.30123C3016.54628,1585.2462 3017.11471,1584.32614 3017.62178,1583.54101C3017.85336,1583.18244 3018.04888,1582.89191 3018.20662,1582.66823C3017.6491,1582.70589 3016.93121,1582.82521 3016.05246,1583.02261C3014.94421,1583.27156 3013.86809,1583.56866 3012.82409,1583.91398C3011.81066,1584.2492 3011.05301,1584.56925 3010.55409,1584.88107C3010.54747,1584.88521 3010.54075,1584.88917 3010.53393,1584.89296C3010.38496,1584.97572 3010.2484,1585.0502 3010.12425,1585.11641C3009.8959,1585.2382 3009.73931,1585.26755 3009.67842,1585.26755C3009.60507,1585.26755 3009.53741,1585.25961 3009.47527,1585.24535L3009.27017,1585.16687L3009.09127,1585.02617L3008.96669,1584.84538C3008.87997,1584.67194 3008.83325,1584.47447 3008.83325,1584.25148L3008.83325,1584.15382C3008.83325,1584.12389 3008.83621,1584.09403 3008.84208,1584.06468C3008.89169,1583.81664 3009.01209,1583.5914 3009.21052,1583.39296C3009.21481,1583.38868 3009.21918,1583.38448 3009.22363,1583.38037C3009.45436,1583.16739 3009.98088,1582.86812 3010.81505,1582.50428C3011.59177,1582.1655 3012.45519,1581.83896 3013.40543,1581.52497C3014.35495,1581.21121 3015.20957,1580.9637 3015.96919,1580.78206L3015.97223,1580.78134C3017.12974,1580.51293 3018.27889,1580.37897 3019.41963,1580.37897C3019.73684,1580.37897 3020.05405,1580.38732 3020.37125,1580.40401L3020.37344,1580.40413C3021.80866,1580.48662 3023.74731,1580.81467 3026.18876,1581.39202C3028.03476,1581.82543 3029.27048,1582.07975 3029.89654,1582.15198C3030.50948,1582.22271 3030.99663,1582.25885 3031.35811,1582.25885C3031.71005,1582.25885 3032.0467,1582.23608 3032.36804,1582.19018C3032.37632,1582.189 3032.38462,1582.18804 3032.39295,1582.18732C3032.72936,1582.15807 3033.01487,1582.10853 3033.24889,1582.0354C3033.48475,1581.9617 3033.74951,1581.8425 3034.04433,1581.68035L3034.04873,1581.67796C3034.59487,1581.38539 3035.02061,1581.25787 3035.31318,1581.25787C3035.41376,1581.25787 3035.50347,1581.27128 3035.58277,1581.29449L3035.71901,1581.34821L3035.84738,1581.43072L3035.95707,1581.53934L3036.04019,1581.66505C3036.08034,1581.74112 3036.11085,1581.82923 3036.12775,1581.93066C3036.13187,1581.95536 3036.13394,1581.98035 3036.13394,1582.00539L3036.13394,1582.10304C3036.13394,1582.40018 3036.0113,1582.70663 3035.72605,1583.00377C3035.41553,1583.32722 3034.8789,1583.66069 3034.10589,1583.98344C3033.8644,1584.09447 3033.64098,1584.17215 3033.43638,1584.21865C3033.24148,1584.26294 3033.00238,1584.29904 3032.71889,1584.32562C3032.45058,1584.35077 3032.08255,1584.36399 3031.61524,1584.3642C3031.3179,1584.38052 3031.03687,1584.38864 3030.77217,1584.38864C3030.50024,1584.38864 3030.2453,1584.38007 3030.00736,1584.36307C3029.53829,1584.32957 3028.96025,1584.25052 3028.27339,1584.12487C3027.6013,1584.00193 3026.6509,1583.79325 3025.42226,1583.49843C3024.59558,1583.32013 3023.8903,1583.17016 3023.30642,1583.04852C3023.08137,1583.00163 3022.88017,1582.96182 3022.72621,1582.93208C3022.70878,1583.18025 3022.63922,1583.48831 3022.50904,1583.85444C3022.37403,1584.23415 3022.09735,1584.81723 3021.67545,1585.60198C3021.26754,1586.36069 3020.67203,1587.43347 3019.88888,1588.82031C3018.13183,1591.94396 3016.72048,1594.46974 3015.65485,1596.39764C3015.0806,1597.43654 3014.65993,1598.20443 3014.39322,1598.70155L3014.61058,1598.69014C3015.22678,1598.65771 3015.98892,1598.60905 3016.89701,1598.54419C3018.946,1598.39666 3020.47048,1598.3233 3021.47041,1598.3233C3022.26377,1598.3233 3022.76166,1598.38292 3022.96735,1598.46519L3023.14802,1598.56842L3023.28108,1598.72323L3023.17742,1598.59956C3023.50457,1598.87219 3023.63394,1599.1644 3023.63394,1599.43703C3023.63394,1599.63802 3023.57077,1599.84203 3023.4272,1600.04302L3023.43553,1600.03096L3023.34305,1600.13944L3023.24645,1600.21462C3023.17721,1600.25963 3023.08365,1600.30333 3022.96247,1600.33795C3022.83451,1600.37451 3022.61554,1600.41342 3022.30477,1600.44998C3022.02375,1600.48304 3021.60636,1600.52037 3021.05258,1600.5617C3020.505,1600.60256 3019.77762,1600.64753 3018.87043,1600.69657C3017.96795,1600.74535 3016.85002,1600.8104 3015.51663,1600.8917L3015.5096,1600.89208C3014.79995,1600.92433 3014.19917,1600.96057 3013.70725,1601.00089C3013.46744,1601.02055 3013.26439,1601.04112 3013.13786,1601.05472C3013.00084,1601.28771 3012.64299,1601.90571 3012.2421,1602.67453C3011.64879,1603.8124 3010.94981,1605.17785 3010.14518,1606.77087C3009.3406,1608.36377 3008.58071,1609.89573 3007.86553,1611.36673C3007.1533,1612.83165 3006.61861,1613.95352 3006.26244,1614.73023C3005.95186,1615.4683 3005.64908,1615.98043 3005.3706,1616.27605C3005.09227,1616.57151 3004.80839,1616.68844 3004.55147,1616.68844L3004.47822,1616.68844C3004.36625,1616.68844 3004.25895,1616.6837 3004.15631,1616.67437C3004.04788,1616.66451 3003.96105,1616.64177 3003.89402,1616.61417L3003.79512,1616.56337L3003.77333,1616.54604C3003.55105,1616.40708 3003.39572,1616.20752 3003.31236,1615.94353C3003.24702,1615.73662 3003.21802,1615.55628 3003.21802,1615.40382C3003.21802,1615.3031 3003.2272,1615.19257 3003.24624,1615.07553C3003.29811,1614.63697 3003.89246,1612.90662 3005.05513,1609.89351L3005.05629,1609.89054C3005.26775,1609.35375 3005.48328,1608.80475 3005.70288,1608.24356C3005.92006,1607.68856 3006.08503,1607.25021 3006.19764,1606.92847C3006.31264,1606.5999 3006.50559,1606.08646 3006.77666,1605.38824C3007.04576,1604.69512 3007.32708,1603.9816 3007.62064,1603.24771C3007.91287,1602.51715 3008.15639,1601.90024 3008.35121,1601.39696C3008.37662,1601.3313 3008.40072,1601.2687 3008.42331,1601.20971ZM3022.44268,1582.42043L3022.44697,1582.87422L3022.44697,1582.42043L3022.44268,1582.42043ZM3022.42256,1582.42043L3022.42256,1582.87397L3022.42269,1582.42043L3022.42256,1582.42043ZM3075.87936,1601.20971C3075.35608,1601.20583 3074.95359,1601.14992 3074.67043,1601.05412C3074.40583,1600.96459 3074.22253,1600.83414 3074.10596,1600.68849C3073.90373,1600.47603 3073.79907,1600.21445 3073.79907,1599.90089L3073.79907,1599.77882C3073.79907,1599.76802 3073.79946,1599.75722 3073.80023,1599.74644C3073.82534,1599.39487 3073.98941,1599.08691 3074.31358,1598.83625C3074.43933,1598.73596 3074.55485,1598.67076 3074.65554,1598.63301C3074.76804,1598.59082 3074.89423,1598.56745 3075.03486,1598.56745L3075.15693,1598.56745C3075.1737,1598.56745 3075.19046,1598.56837 3075.20713,1598.57023C3075.35429,1598.58658 3075.56685,1598.6111 3075.84481,1598.6438C3075.85689,1598.64522 3075.86891,1598.64713 3075.88084,1598.64951C3076.11708,1598.69676 3076.3415,1598.73617 3076.55411,1598.76767C3076.68621,1598.78724 3076.79291,1598.80448 3076.87416,1598.81901C3076.87844,1598.81276 3076.88256,1598.80657 3076.8864,1598.8006C3076.95285,1598.69724 3077.03681,1598.538 3077.14017,1598.32389C3077.25423,1598.08762 3077.40882,1597.77433 3077.60395,1597.38403C3078.25622,1595.98183 3078.97767,1594.49823 3079.76832,1592.93323C3080.56043,1591.36534 3081.20152,1590.13229 3081.69149,1589.23402C3082.18233,1588.33414 3082.74268,1587.35653 3083.37259,1586.30123C3084.00233,1585.2462 3084.57077,1584.32614 3085.07783,1583.54101C3085.30941,1583.18244 3085.50493,1582.89191 3085.66268,1582.66823C3085.10515,1582.70589 3084.38727,1582.82521 3083.50851,1583.02261C3082.40027,1583.27156 3081.32414,1583.56866 3080.28015,1583.91398C3079.26672,1584.2492 3078.50906,1584.56925 3078.01015,1584.88107C3078.00353,1584.88521 3077.99681,1584.88917 3077.98998,1584.89296C3077.84101,1584.97572 3077.70445,1585.0502 3077.58031,1585.11641C3077.35196,1585.2382 3077.19537,1585.26755 3077.13447,1585.26755C3077.06112,1585.26755 3076.99347,1585.25961 3076.93132,1585.24535L3076.72622,1585.16687L3076.54733,1585.02617L3076.42274,1584.84538C3076.33602,1584.67195 3076.28931,1584.47448 3076.28931,1584.25148L3076.28931,1584.15382C3076.28931,1584.12389 3076.29226,1584.09403 3076.29813,1584.06468C3076.34774,1583.81664 3076.46814,1583.5914 3076.66658,1583.39296C3076.67086,1583.38868 3076.67523,1583.38448 3076.67968,1583.38037C3076.91041,1583.16739 3077.43693,1582.86812 3078.27111,1582.50428C3079.04783,1582.1655 3079.91125,1581.83896 3080.86149,1581.52497C3081.81101,1581.21121 3082.66563,1580.9637 3083.42524,1580.78206L3083.42828,1580.78134C3084.58579,1580.51293 3085.73495,1580.37897 3086.87568,1580.37897C3087.19289,1580.37897 3087.5101,1580.38732 3087.82731,1580.40401L3087.8295,1580.40413C3089.26472,1580.48662 3091.20336,1580.81467 3093.64481,1581.39202C3095.49082,1581.82543 3096.72654,1582.07975 3097.35259,1582.15198C3097.96553,1582.22271 3098.45268,1582.25885 3098.81416,1582.25885C3099.1661,1582.25885 3099.50276,1582.23608 3099.8241,1582.19018C3099.83237,1582.189 3099.84068,1582.18804 3099.849,1582.18732C3100.18541,1582.15807 3100.47092,1582.10853 3100.70495,1582.0354C3100.9408,1581.9617 3101.20557,1581.8425 3101.50038,1581.68035L3101.50479,1581.67796C3102.05092,1581.38539 3102.47667,1581.25787 3102.76924,1581.25787C3102.86982,1581.25787 3102.95952,1581.27128 3103.03883,1581.29449L3103.17507,1581.34821L3103.30343,1581.43072L3103.41312,1581.53934L3103.49624,1581.66505C3103.53639,1581.74112 3103.5669,1581.82923 3103.58381,1581.93066C3103.58792,1581.95536 3103.58999,1581.98035 3103.58999,1582.00539L3103.58999,1582.10304C3103.58999,1582.40018 3103.46735,1582.70663 3103.1821,1583.00377C3102.87158,1583.32722 3102.33496,1583.66069 3101.56194,1583.98344C3101.32045,1584.09447 3101.09703,1584.17215 3100.89244,1584.21865C3100.69754,1584.26294 3100.45844,1584.29904 3100.17495,1584.32562C3099.90663,1584.35077 3099.53861,1584.36399 3099.0713,1584.3642C3098.77395,1584.38052 3098.49293,1584.38864 3098.22822,1584.38864C3097.95629,1584.38864 3097.70136,1584.38007 3097.46342,1584.36307C3096.99434,1584.32957 3096.4163,1584.25052 3095.72944,1584.12487C3095.05736,1584.00193 3094.10695,1583.79325 3092.87832,1583.49843C3092.05164,1583.32013 3091.34636,1583.17016 3090.76247,1583.04852C3090.53742,1583.00163 3090.33622,1582.96182 3090.18226,1582.93208C3090.16483,1583.18025 3090.09527,1583.48831 3089.96509,1583.85444C3089.83008,1584.23415 3089.55341,1584.81723 3089.1315,1585.60198C3088.72359,1586.36069 3088.12809,1587.43347 3087.34494,1588.82031C3085.58788,1591.94396 3084.17654,1594.46974 3083.1109,1596.39764C3082.53666,1597.43654 3082.11598,1598.20443 3081.84928,1598.70155L3082.06664,1598.69014C3082.68284,1598.65771 3083.44498,1598.60905 3084.35306,1598.54419C3086.40205,1598.39666 3087.92654,1598.3233 3088.92647,1598.3233C3089.71983,1598.3233 3090.21772,1598.38292 3090.4234,1598.46519L3090.60407,1598.56842L3090.73713,1598.72323L3090.63347,1598.59956C3090.96063,1598.87219 3091.08999,1599.1644 3091.08999,1599.43703C3091.08999,1599.63802 3091.02682,1599.84203 3090.88326,1600.04302L3090.89158,1600.03096L3090.79911,1600.13944L3090.70251,1600.21462C3090.63326,1600.25963 3090.5397,1600.30333 3090.41852,1600.33795C3090.29056,1600.37451 3090.07159,1600.41342 3089.76082,1600.44998C3089.4798,1600.48304 3089.06241,1600.52037 3088.50863,1600.5617C3087.96105,1600.60256 3087.23367,1600.64753 3086.32649,1600.69657C3085.42401,1600.74535 3084.30608,1600.8104 3082.97268,1600.8917L3082.96566,1600.89208C3082.25601,1600.92433 3081.65522,1600.96057 3081.16331,1601.00089C3080.9235,1601.02055 3080.72045,1601.04112 3080.59392,1601.05472C3080.4569,1601.28771 3080.09904,1601.90571 3079.69816,1602.67453C3079.10484,1603.8124 3078.40587,1605.17785 3077.60123,1606.77087C3076.79665,1608.36377 3076.03677,1609.89573 3075.32158,1611.36673C3074.60935,1612.83165 3074.07467,1613.95352 3073.71849,1614.73023C3073.40791,1615.4683 3073.10514,1615.98043 3072.82666,1616.27605C3072.54832,1616.57151 3072.26445,1616.68844 3072.00752,1616.68844L3071.93428,1616.68844C3071.82231,1616.68844 3071.715,1616.6837 3071.61236,1616.67437C3071.50394,1616.66451 3071.4171,1616.64177 3071.35008,1616.61417L3071.25117,1616.56337L3071.22938,1616.54604C3071.00711,1616.40708 3070.85178,1616.20752 3070.76841,1615.94353C3070.70307,1615.73662 3070.67407,1615.55628 3070.67407,1615.40382C3070.67407,1615.3031 3070.68326,1615.19257 3070.70229,1615.07553C3070.75416,1614.63697 3071.34852,1612.90662 3072.51119,1609.89351L3072.51234,1609.89054C3072.72381,1609.35375 3072.93934,1608.80475 3073.15894,1608.24356C3073.37611,1607.68856 3073.54108,1607.25021 3073.65369,1606.92847C3073.76869,1606.5999 3073.96164,1606.08646 3074.23272,1605.38824C3074.50181,1604.69512 3074.78314,1603.9816 3075.0767,1603.24771C3075.36892,1602.51715 3075.61245,1601.90024 3075.80726,1601.39696C3075.83268,1601.3313 3075.85677,1601.2687 3075.87936,1601.20971ZM3089.90269,1582.42043L3089.90303,1582.87422L3089.90303,1582.42043L3089.90269,1582.42043ZM3089.87861,1582.42043L3089.87861,1582.87397L3089.87889,1582.42043L3089.87861,1582.42043Z"/>
            </g>
        </g>
    </g>
</svg>
