<?xml version="1.0" encoding="UTF-8" standalone="no"?><!DOCTYPE svg PUBLIC "-//W3C//DTD SVG 1.1//EN" "http://www.w3.org/Graphics/SVG/1.1/DTD/svg11.dtd"><svg width="100%" height="100%" viewBox="0 0 434 212" version="1.1" xmlns="http://www.w3.org/2000/svg" xmlns:xlink="http://www.w3.org/1999/xlink" xml:space="preserve" xmlns:serif="http://www.serif.com/" style="fill-rule:evenodd;clip-rule:evenodd;stroke-linecap:round;stroke-linejoin:round;stroke-miterlimit:1.5;"><rect id="chemcalrush_stacked" x="0" y="0" width="434" height="212" style="fill:none;"/><g><g><path d="M102.869,16.265l0,72c0,7.727 -6.273,14 -14,14l-72,0c-7.727,0 -14,-6.273 -14,-14l0,-72c0,-7.727 6.273,-14 14,-14l72,0c7.727,0 14,6.273 14,14Z" style="fill:#525252;stroke:#000;stroke-width:4px;"/><path d="M212.29,16.265l-0,72c-0,7.727 -6.273,14 -14,14l-72,0c-7.727,0 -14,-6.273 -14,-14l-0,-72c-0,-7.727 6.273,-14 14,-14l72,0c7.727,0 14,6.273 14,14Z" style="fill:#ffb99e;stroke:#000;stroke-width:4px;"/><path d="M321.71,16.265l0,72c0,7.727 -6.273,14 -14,14l-72,0c-7.727,0 -14,-6.273 -14,-14l0,-72c0,-7.727 6.273,-14 14,-14l72,0c7.727,0 14,6.273 14,14Z" style="fill:#c5c5c5;stroke:#000;stroke-width:4px;"/><path d="M431.131,16.265l-0,72c-0,7.727 -6.273,14 -14,14l-72,0c-7.727,0 -14,-6.273 -14,-14l-0,-72c-0,-7.727 6.273,-14 14,-14l72,0c7.727,0 14,6.273 14,14Z" style="fill:#fff;stroke:#000;stroke-width:4px;"/><path d="M53.141,72.64c-5.667,0 -10.058,-1.783 -13.175,-5.35c-3.117,-3.566 -4.675,-8.533 -4.675,-14.9c-0,-6.3 1.533,-11.25 4.6,-14.85c3.067,-3.6 7.467,-5.4 13.2,-5.4c3.433,0 6.367,0.642 8.8,1.925c2.433,1.284 4.333,3.059 5.7,5.325c1.367,2.267 2.167,4.867 2.4,7.8l-8.35,0c-0.267,-2.733 -1.15,-4.875 -2.65,-6.425c-1.5,-1.55 -3.45,-2.325 -5.85,-2.325c-3.033,0 -5.317,1.217 -6.85,3.65c-1.533,2.434 -2.3,5.884 -2.3,10.35c-0,4.634 0.792,8.109 2.375,10.425c1.583,2.317 3.825,3.475 6.725,3.475c2.5,0 4.492,-0.8 5.975,-2.4c1.483,-1.6 2.342,-3.716 2.575,-6.35l8.35,0c-0.233,2.934 -1.033,5.534 -2.4,7.8c-1.367,2.267 -3.258,4.042 -5.675,5.325c-2.417,1.284 -5.342,1.925 -8.775,1.925Z" style="fill:#fff;fill-rule:nonzero;"/><path d="M130.712,71.89l-0,-39l8.4,0l-0,14.85l16.6,0l-0,-14.85l8.4,0l-0,39l-8.4,0l-0,-17.35l-16.6,0l-0,17.35l-8.4,0Z" style="fill-rule:nonzero;"/><path d="M181.762,72.64c-4.734,0 -8.342,-1.416 -10.825,-4.25c-2.484,-2.833 -3.725,-6.683 -3.725,-11.55c-0,-3.266 0.558,-6.066 1.675,-8.4c1.116,-2.333 2.75,-4.133 4.9,-5.4c2.15,-1.266 4.775,-1.9 7.875,-1.9c4.466,0 7.891,1.35 10.275,4.05c2.383,2.7 3.575,6.667 3.575,11.9l-0,1.7l-20.4,0c0.166,2.534 0.825,4.525 1.975,5.975c1.15,1.45 2.708,2.175 4.675,2.175c1.566,0 2.825,-0.466 3.775,-1.4c0.95,-0.933 1.575,-2.016 1.875,-3.25l7.7,0c-0.3,1.834 -0.967,3.534 -2,5.1c-1.034,1.567 -2.484,2.834 -4.35,3.8c-1.867,0.967 -4.2,1.45 -7,1.45Zm-6.65,-18.95l12.5,0c-0.134,-2.266 -0.7,-4.025 -1.7,-5.275c-1,-1.25 -2.434,-1.875 -4.3,-1.875c-1.834,0 -3.309,0.592 -4.425,1.775c-1.117,1.184 -1.809,2.975 -2.075,5.375Z" style="fill-rule:nonzero;"/><path d="M234.132,71.89l0,-39l14.8,0l7.25,32.4l1.8,0l7.25,-32.4l14.8,0l0,39l-7.8,0l0,-32.1l-1.3,0l-7.1,32.1l-13.9,0l-7.1,-32.1l-1.3,0l0,32.1l-7.4,0Z" style="fill-rule:nonzero;"/><path d="M297.382,72.64c-4.633,0 -8.166,-1.416 -10.6,-4.25c-2.433,-2.833 -3.65,-6.666 -3.65,-11.5c0,-5.1 1.292,-9 3.875,-11.7c2.584,-2.7 6.075,-4.05 10.475,-4.05c3.967,0 7.084,1.05 9.35,3.15c2.267,2.1 3.617,4.967 4.05,8.6l-8,0c-0.233,-1.966 -0.816,-3.466 -1.75,-4.5c-0.933,-1.033 -2.133,-1.55 -3.6,-1.55c-1.933,0 -3.416,0.867 -4.45,2.6c-1.033,1.734 -1.55,4.217 -1.55,7.45c0,3.234 0.509,5.717 1.525,7.45c1.017,1.734 2.492,2.6 4.425,2.6c1.5,0 2.717,-0.525 3.65,-1.575c0.934,-1.05 1.517,-2.541 1.75,-4.475l8,0c-0.466,3.567 -1.841,6.417 -4.125,8.55c-2.283,2.134 -5.408,3.2 -9.375,3.2Z" style="fill-rule:nonzero;"/><path d="M355.803,71.89l-0,-0.3l11.75,-38.7l13.15,0l11.8,38.7l-0,0.3l-8.6,0l-9.45,-32.5l-1.2,0l-9.55,32.5l-7.9,0Zm9.75,-9.75l1.75,-6.3l13.1,0l1.75,6.3l-16.6,0Z" style="fill-rule:nonzero;"/><path d="M396.653,71.89c-0.934,-1.066 -1.592,-2.275 -1.975,-3.625c-0.384,-1.35 -0.575,-3.125 -0.575,-5.325l-0,-31.05l8.1,0l-0,30.2c-0,2.534 0.283,4.509 0.85,5.925c0.566,1.417 1.316,2.609 2.25,3.575l-0,0.3l-8.65,0Z" style="fill-rule:nonzero;"/><path d="M52.498,20.289c-0.836,-0 -1.545,-0.165 -2.127,-0.494c-0.582,-0.328 -1.024,-0.775 -1.327,-1.34c-0.302,-0.564 -0.453,-1.197 -0.453,-1.9c-0,-0.56 0.084,-1.086 0.253,-1.58c0.169,-0.493 0.387,-0.966 0.654,-1.42c0.266,-0.453 0.546,-0.884 0.84,-1.293c0.017,-0.018 0.091,-0.115 0.22,-0.293c0.129,-0.178 0.289,-0.4 0.48,-0.667c0.191,-0.267 0.391,-0.542 0.6,-0.827c0.209,-0.284 0.406,-0.542 0.593,-0.773l2.52,0l-0,0.08c-0.169,0.205 -0.462,0.553 -0.88,1.047c-0.418,0.493 -0.889,1.073 -1.413,1.74c-0.32,0.409 -0.567,0.733 -0.74,0.973c-0.174,0.24 -0.274,0.382 -0.3,0.427l0.32,-0c0.151,-0.125 0.351,-0.254 0.6,-0.387c0.249,-0.133 0.577,-0.2 0.986,-0.2c0.569,0 1.085,0.131 1.547,0.393c0.462,0.263 0.829,0.638 1.1,1.127c0.271,0.489 0.407,1.067 0.407,1.733c-0,0.685 -0.151,1.305 -0.454,1.86c-0.302,0.556 -0.74,0.994 -1.313,1.314c-0.573,0.32 -1.278,0.48 -2.113,0.48Zm0.026,-1.6c0.56,-0 1.003,-0.176 1.327,-0.527c0.324,-0.351 0.487,-0.833 0.487,-1.447c-0,-0.631 -0.165,-1.117 -0.494,-1.46c-0.329,-0.342 -0.769,-0.513 -1.32,-0.513c-0.586,0 -1.046,0.185 -1.38,0.553c-0.333,0.369 -0.5,0.838 -0.5,1.407c0,0.347 0.069,0.671 0.207,0.973c0.138,0.303 0.347,0.547 0.627,0.734c0.28,0.186 0.629,0.28 1.046,0.28Z" style="fill:#fff;fill-rule:nonzero;"/><path d="M158.038,20.102l0,-1.76c0.738,-0.56 1.382,-1.064 1.934,-1.513c0.551,-0.449 1.022,-0.86 1.413,-1.234c0.587,-0.551 1.029,-1.048 1.327,-1.493c0.297,-0.444 0.446,-0.911 0.446,-1.4c0,-0.444 -0.126,-0.807 -0.38,-1.087c-0.253,-0.28 -0.62,-0.42 -1.1,-0.42c-0.542,0 -0.951,0.176 -1.226,0.527c-0.276,0.351 -0.414,0.816 -0.414,1.393l-2,0c0,-0.72 0.138,-1.351 0.414,-1.893c0.275,-0.542 0.686,-0.962 1.233,-1.26c0.547,-0.298 1.224,-0.447 2.033,-0.447c1.147,0 2.034,0.292 2.66,0.874c0.627,0.582 0.94,1.349 0.94,2.3c0,0.684 -0.178,1.313 -0.533,1.886c-0.356,0.574 -0.885,1.176 -1.587,1.807c-0.302,0.276 -0.638,0.558 -1.006,0.847c-0.369,0.289 -0.736,0.553 -1.1,0.793l-0,0.32l4.573,0l-0,1.76l-7.627,0Z" style="fill-rule:nonzero;"/><path d="M259.406,20.102l-0,-1.627l2.466,0l0,-5.466l-2.24,-0l-0.013,-1.44l0.64,-0.054c0.4,-0.035 0.731,-0.1 0.993,-0.193c0.262,-0.093 0.474,-0.264 0.634,-0.513c0.16,-0.249 0.28,-0.618 0.36,-1.107l1.786,0l0,8.773l2.254,0l-0,1.627l-6.88,0Z" style="fill-rule:nonzero;"/><path d="M267.832,20.102l0,-1.627l2.467,0l-0,-5.466l-2.24,-0l-0.013,-1.44l0.64,-0.054c0.4,-0.035 0.731,-0.1 0.993,-0.193c0.262,-0.093 0.473,-0.264 0.633,-0.513c0.16,-0.249 0.28,-0.618 0.36,-1.107l1.787,0l-0,8.773l2.253,0l0,1.627l-6.88,0Z" style="fill-rule:nonzero;"/><path d="M279.632,20.262c-0.684,0 -1.262,-0.095 -1.733,-0.287c-0.471,-0.191 -0.853,-0.437 -1.147,-0.74c-0.293,-0.302 -0.511,-0.624 -0.653,-0.966c-0.142,-0.342 -0.222,-0.665 -0.24,-0.967l2.107,0c0.026,0.196 0.104,0.391 0.233,0.587c0.129,0.195 0.32,0.36 0.573,0.493c0.254,0.133 0.562,0.2 0.927,0.2c0.595,0 1.033,-0.191 1.313,-0.573c0.28,-0.382 0.42,-0.871 0.42,-1.467c0,-0.613 -0.155,-1.098 -0.466,-1.453c-0.312,-0.356 -0.743,-0.534 -1.294,-0.534c-0.311,0 -0.573,0.058 -0.786,0.174c-0.214,0.115 -0.385,0.251 -0.514,0.406c-0.129,0.156 -0.224,0.3 -0.286,0.434l-2.054,-0l0.627,-5.867l6.187,0l-0,1.68l-4.494,0l-0.293,2.48l0.32,0c0.178,-0.258 0.42,-0.46 0.727,-0.607c0.306,-0.146 0.704,-0.22 1.193,-0.22c0.675,0 1.258,0.145 1.747,0.434c0.488,0.289 0.868,0.695 1.14,1.22c0.271,0.524 0.406,1.133 0.406,1.826c0,0.747 -0.16,1.4 -0.48,1.96c-0.32,0.56 -0.775,0.998 -1.366,1.314c-0.592,0.315 -1.296,0.473 -2.114,0.473Z" style="fill-rule:nonzero;"/><path d="M373.039,20.102l0,-1.627l2.467,0l0,-5.466l-2.24,-0l-0.013,-1.44l0.64,-0.054c0.4,-0.035 0.731,-0.1 0.993,-0.193c0.262,-0.093 0.473,-0.264 0.633,-0.513c0.16,-0.249 0.28,-0.618 0.36,-1.107l1.787,0l0,8.773l2.253,0l0,1.627l-6.88,0Z" style="fill-rule:nonzero;"/><path d="M384.879,20.275c-0.675,0 -1.264,-0.093 -1.766,-0.28c-0.502,-0.186 -0.92,-0.44 -1.254,-0.76c-0.333,-0.32 -0.58,-0.68 -0.74,-1.08c-0.16,-0.4 -0.24,-0.817 -0.24,-1.253l2.107,0c0.045,0.445 0.22,0.838 0.527,1.18c0.306,0.342 0.762,0.513 1.366,0.513c0.569,0 0.996,-0.151 1.28,-0.453c0.285,-0.302 0.427,-0.667 0.427,-1.093c0,-0.551 -0.222,-0.98 -0.667,-1.287c-0.444,-0.307 -1.044,-0.46 -1.8,-0.46l-0.466,0l-0,-1.467l1.173,-1.253c0.16,-0.169 0.322,-0.329 0.487,-0.48c0.164,-0.151 0.335,-0.284 0.513,-0.4l0,-0.32l-4.36,0l0,-1.68l6.8,0l0,1.76l-2.373,2.333l-0,0.32c0.88,0.134 1.575,0.44 2.086,0.92c0.512,0.48 0.767,1.138 0.767,1.974c0,0.658 -0.16,1.231 -0.48,1.72c-0.32,0.489 -0.769,0.869 -1.347,1.14c-0.577,0.271 -1.257,0.406 -2.04,0.406Z" style="fill-rule:nonzero;"/><path d="M44.778,94.338l-0,-1.626l2.466,-0l0,-5.467l-2.24,-0l-0.013,-1.44l0.64,-0.053c0.4,-0.036 0.731,-0.1 0.993,-0.194c0.263,-0.093 0.474,-0.264 0.634,-0.513c0.16,-0.249 0.28,-0.618 0.36,-1.107l1.786,0l0,8.774l2.254,-0l-0,1.626l-6.88,0Z" style="fill:#fff;fill-rule:nonzero;"/><path d="M52.831,94.338l-0,-1.76c0.738,-0.56 1.382,-1.064 1.933,-1.513c0.551,-0.449 1.023,-0.86 1.414,-1.233c0.586,-0.552 1.029,-1.049 1.326,-1.494c0.298,-0.444 0.447,-0.911 0.447,-1.4c-0,-0.444 -0.127,-0.806 -0.38,-1.086c-0.253,-0.28 -0.62,-0.42 -1.1,-0.42c-0.542,-0 -0.951,0.175 -1.227,0.526c-0.275,0.351 -0.413,0.816 -0.413,1.394l-2,-0c-0,-0.72 0.138,-1.352 0.413,-1.894c0.276,-0.542 0.687,-0.962 1.234,-1.26c0.546,-0.298 1.224,-0.446 2.033,-0.446c1.147,-0 2.033,0.291 2.66,0.873c0.627,0.582 0.94,1.349 0.94,2.3c-0,0.684 -0.178,1.313 -0.533,1.887c-0.356,0.573 -0.885,1.175 -1.587,1.806c-0.302,0.276 -0.638,0.558 -1.007,0.847c-0.369,0.289 -0.735,0.553 -1.1,0.793l0,0.32l4.574,0l-0,1.76l-7.627,0Z" style="fill:#fff;fill-rule:nonzero;"/><path d="M157.785,91.952l-0,-1.787l4.347,-6.227l2.32,0l-0,0.08l-3.4,4.8c-0.143,0.196 -0.289,0.391 -0.44,0.587c-0.152,0.195 -0.329,0.395 -0.534,0.6l0,0.32l5.84,-0l0,1.627l-8.133,-0Zm4.747,2.386l-0,-3.2l0.053,0l-0,-2.56l1.88,0l-0,2.574l0.053,-0l0,3.186l-1.986,0Z" style="fill-rule:nonzero;"/><path d="M259.032,94.338l0,-1.76c0.738,-0.56 1.382,-1.064 1.934,-1.513c0.551,-0.449 1.022,-0.86 1.413,-1.233c0.587,-0.552 1.029,-1.049 1.327,-1.494c0.297,-0.444 0.446,-0.911 0.446,-1.4c0,-0.444 -0.126,-0.806 -0.38,-1.086c-0.253,-0.28 -0.62,-0.42 -1.1,-0.42c-0.542,-0 -0.951,0.175 -1.226,0.526c-0.276,0.351 -0.414,0.816 -0.414,1.394l-2,-0c0,-0.72 0.138,-1.352 0.414,-1.894c0.275,-0.542 0.686,-0.962 1.233,-1.26c0.547,-0.298 1.224,-0.446 2.033,-0.446c1.147,-0 2.034,0.291 2.66,0.873c0.627,0.582 0.94,1.349 0.94,2.3c0,0.684 -0.178,1.313 -0.533,1.887c-0.356,0.573 -0.885,1.175 -1.587,1.806c-0.302,0.276 -0.638,0.558 -1.006,0.847c-0.369,0.289 -0.736,0.553 -1.1,0.793l-0,0.32l4.573,0l-0,1.76l-7.627,0Z" style="fill-rule:nonzero;"/><path d="M268.952,94.338l0,-0.08c0.178,-0.204 0.474,-0.553 0.887,-1.046c0.413,-0.494 0.882,-1.074 1.407,-1.74c0.32,-0.409 0.566,-0.736 0.74,-0.98c0.173,-0.245 0.273,-0.385 0.3,-0.42l-0.32,-0c-0.143,0.115 -0.338,0.242 -0.587,0.38c-0.249,0.137 -0.582,0.206 -1,0.206c-0.569,0 -1.085,-0.133 -1.547,-0.4c-0.462,-0.266 -0.829,-0.642 -1.1,-1.126c-0.271,-0.485 -0.406,-1.06 -0.406,-1.727c-0,-0.693 0.151,-1.316 0.453,-1.867c0.302,-0.551 0.742,-0.986 1.32,-1.306c0.578,-0.32 1.28,-0.48 2.107,-0.48c0.844,-0 1.555,0.164 2.133,0.493c0.578,0.329 1.018,0.775 1.32,1.34c0.302,0.564 0.453,1.198 0.453,1.9c0,0.551 -0.084,1.075 -0.253,1.573c-0.169,0.498 -0.387,0.971 -0.653,1.42c-0.267,0.449 -0.547,0.882 -0.84,1.3c-0.018,0.018 -0.092,0.116 -0.22,0.294c-0.129,0.177 -0.289,0.4 -0.48,0.666c-0.192,0.267 -0.392,0.542 -0.6,0.827c-0.209,0.284 -0.407,0.542 -0.594,0.773l-2.52,0Zm2.227,-5.04c0.587,0 1.047,-0.184 1.38,-0.553c0.333,-0.369 0.5,-0.838 0.5,-1.407c-0,-0.355 -0.069,-0.682 -0.207,-0.98c-0.138,-0.298 -0.346,-0.54 -0.626,-0.726c-0.28,-0.187 -0.629,-0.28 -1.047,-0.28c-0.56,-0 -1.002,0.175 -1.327,0.526c-0.324,0.351 -0.486,0.834 -0.486,1.447c-0,0.631 0.166,1.118 0.5,1.46c0.333,0.342 0.771,0.513 1.313,0.513Z" style="fill-rule:nonzero;"/><path d="M279.699,94.525c-1.369,-0 -2.391,-0.476 -3.067,-1.427c-0.675,-0.951 -1.013,-2.271 -1.013,-3.96c-0,-1.689 0.338,-3.009 1.013,-3.96c0.676,-0.951 1.698,-1.426 3.067,-1.426c1.378,-0 2.402,0.475 3.073,1.426c0.671,0.951 1.007,2.271 1.007,3.96c-0,1.689 -0.336,3.009 -1.007,3.96c-0.671,0.951 -1.695,1.427 -3.073,1.427Zm-0,-1.76c0.631,-0 1.095,-0.302 1.393,-0.907c0.298,-0.604 0.447,-1.511 0.447,-2.72c-0,-1.209 -0.149,-2.115 -0.447,-2.72c-0.298,-0.604 -0.762,-0.906 -1.393,-0.906c-0.631,-0 -1.096,0.302 -1.393,0.906c-0.298,0.605 -0.447,1.511 -0.447,2.72c-0,1.209 0.149,2.116 0.447,2.72c0.297,0.605 0.762,0.907 1.393,0.907Z" style="fill-rule:nonzero;"/><path d="M372.666,94.338l0,-1.76c0.738,-0.56 1.382,-1.064 1.933,-1.513c0.552,-0.449 1.023,-0.86 1.414,-1.233c0.586,-0.552 1.029,-1.049 1.326,-1.494c0.298,-0.444 0.447,-0.911 0.447,-1.4c0,-0.444 -0.127,-0.806 -0.38,-1.086c-0.253,-0.28 -0.62,-0.42 -1.1,-0.42c-0.542,-0 -0.951,0.175 -1.227,0.526c-0.275,0.351 -0.413,0.816 -0.413,1.394l-2,-0c0,-0.72 0.138,-1.352 0.413,-1.894c0.276,-0.542 0.687,-0.962 1.234,-1.26c0.546,-0.298 1.224,-0.446 2.033,-0.446c1.147,-0 2.033,0.291 2.66,0.873c0.627,0.582 0.94,1.349 0.94,2.3c0,0.684 -0.178,1.313 -0.533,1.887c-0.356,0.573 -0.885,1.175 -1.587,1.806c-0.302,0.276 -0.638,0.558 -1.007,0.847c-0.368,0.289 -0.735,0.553 -1.1,0.793l0,0.32l4.574,0l-0,1.76l-7.627,0Z" style="fill-rule:nonzero;"/><path d="M381.973,94.338l-0,-0.08l3.413,-6.533c0.231,-0.445 0.44,-0.791 0.627,-1.04c0.186,-0.249 0.404,-0.471 0.653,-0.667l0,-0.32l-5.493,0l-0,-1.76l7.466,0l0,1.84l-4.266,8.56l-2.4,0Z" style="fill-rule:nonzero;"/></g><g><path d="M157.579,123.735l0,72c0,7.727 -6.273,14 -14,14l-72,-0c-7.726,-0 -14,-6.273 -14,-14l0,-72c0,-7.727 6.274,-14 14,-14l72,-0c7.727,-0 14,6.273 14,14Z" style="fill:#c5c5c5;stroke:#000;stroke-width:4px;"/><path d="M267,123.735l0,72c0,7.727 -6.273,14 -14,14l-72,-0c-7.727,-0 -14,-6.273 -14,-14l0,-72c0,-7.727 6.273,-14 14,-14l72,-0c7.727,-0 14,6.273 14,14Z" style="fill:#ffe957;stroke:#000;stroke-width:4px;"/><path d="M376.421,123.735l-0,72c-0,7.727 -6.274,14 -14,14l-72,-0c-7.727,-0 -14,-6.273 -14,-14l-0,-72c-0,-7.727 6.273,-14 14,-14l72,-0c7.726,-0 14,6.273 14,14Z" style="fill:#fff;stroke:#000;stroke-width:4px;"/><path d="M77.001,179.36l0,-39l16.55,-0c3.334,-0 6.042,0.475 8.125,1.425c2.084,0.95 3.617,2.25 4.6,3.9c0.984,1.65 1.475,3.558 1.475,5.725c0,2.466 -0.65,4.6 -1.95,6.4c-1.3,1.8 -3.216,3.083 -5.75,3.85l8.75,17.4l0,0.3l-8.9,-0l-7.95,-16.5l-6.65,-0l0,16.5l-8.3,-0Zm8.3,-22.6l7.05,-0c2.167,-0 3.859,-0.367 5.075,-1.1c1.217,-0.734 1.825,-2.05 1.825,-3.95c0,-1.934 -0.616,-3.259 -1.85,-3.975c-1.233,-0.717 -2.916,-1.075 -5.05,-1.075l-7.05,-0l0,10.1Z" style="fill-rule:nonzero;"/><path d="M120.701,180.11c-3.333,-0 -5.85,-1.05 -7.55,-3.15c-1.7,-2.1 -2.55,-4.95 -2.55,-8.55l0,-19.05l8.1,-0l0,17.7c0,2.033 0.367,3.616 1.1,4.75c0.734,1.133 1.917,1.7 3.55,1.7c1.967,-0 3.484,-0.767 4.55,-2.3c1.067,-1.534 1.6,-3.417 1.6,-5.65l0,-16.2l8.1,-0l0,30l-7.3,-0l0,-4.5l-1.2,-0c-0.5,1.5 -1.416,2.75 -2.75,3.75c-1.333,1 -3.216,1.5 -5.65,1.5Z" style="fill-rule:nonzero;"/><path d="M217.322,180.11c-3.033,-0 -5.592,-0.409 -7.675,-1.225c-2.083,-0.817 -3.767,-1.892 -5.05,-3.225c-1.283,-1.334 -2.233,-2.792 -2.85,-4.375c-0.617,-1.584 -0.975,-3.142 -1.075,-4.675l7.8,-0c0.067,1.2 0.433,2.35 1.1,3.45c0.667,1.1 1.667,2 3,2.7c1.333,0.7 3,1.05 5,1.05c2.167,-0 3.775,-0.442 4.825,-1.325c1.05,-0.884 1.575,-2.042 1.575,-3.475c-0,-1.367 -0.458,-2.484 -1.375,-3.35c-0.917,-0.867 -2.125,-1.55 -3.625,-2.05l-5.65,-1.9c-1.8,-0.6 -3.525,-1.342 -5.175,-2.225c-1.65,-0.884 -3.008,-2.05 -4.075,-3.5c-1.067,-1.45 -1.6,-3.309 -1.6,-5.575c-0,-2.334 0.592,-4.3 1.775,-5.9c1.183,-1.6 2.817,-2.817 4.9,-3.65c2.083,-0.834 4.475,-1.25 7.175,-1.25c3.467,-0 6.2,0.583 8.2,1.75c2,1.166 3.458,2.641 4.375,4.425c0.917,1.783 1.475,3.641 1.675,5.575l-7.8,-0c-0.067,-0.934 -0.325,-1.825 -0.775,-2.675c-0.45,-0.85 -1.158,-1.542 -2.125,-2.075c-0.967,-0.534 -2.267,-0.8 -3.9,-0.8c-1.833,-0 -3.192,0.383 -4.075,1.15c-0.883,0.766 -1.325,1.733 -1.325,2.9c-0,1.266 0.458,2.283 1.375,3.05c0.917,0.766 2.142,1.416 3.675,1.95l5.65,1.9c1.833,0.6 3.567,1.35 5.2,2.25c1.633,0.9 2.975,2.091 4.025,3.575c1.05,1.483 1.575,3.425 1.575,5.825c-0,3.633 -1.292,6.491 -3.875,8.575c-2.583,2.083 -6.208,3.125 -10.875,3.125Z" style="fill-rule:nonzero;"/><path d="M309.392,179.36l0,-39l8.4,-0l0,14.85l16.6,-0l0,-14.85l8.4,-0l0,39l-8.4,-0l0,-17.35l-16.6,-0l0,17.35l-8.4,-0Z" style="fill-rule:nonzero;"/><path d="M98.861,125.185l0,-1.787l4.347,-6.226l2.32,-0l-0,0.08l-3.4,4.8c-0.142,0.195 -0.289,0.391 -0.44,0.586c-0.151,0.196 -0.329,0.396 -0.533,0.6l-0,0.32l5.84,0l-0,1.627l-8.134,0Zm4.747,2.387l-0,-3.2l0.053,-0l0,-2.56l1.88,-0l0,2.573l0.054,0l-0,3.187l-1.987,-0Z" style="fill-rule:nonzero;"/><path d="M107.288,125.185l-0,-1.787l4.347,-6.226l2.32,-0l-0,0.08l-3.4,4.8c-0.143,0.195 -0.289,0.391 -0.44,0.586c-0.152,0.196 -0.329,0.396 -0.534,0.6l0,0.32l5.84,0l0,1.627l-8.133,0Zm4.747,2.387l-0,-3.2l0.053,-0l-0,-2.56l1.88,-0l-0,2.573l0.053,0l0,3.187l-1.986,-0Z" style="fill-rule:nonzero;"/><path d="M208.909,127.572l-0,-1.627l2.466,0l0,-5.467l-2.24,0l-0.013,-1.44l0.64,-0.053c0.4,-0.035 0.731,-0.1 0.993,-0.193c0.262,-0.094 0.474,-0.265 0.634,-0.514c0.16,-0.248 0.28,-0.617 0.36,-1.106l1.786,-0l0,8.773l2.254,0l-0,1.627l-6.88,-0Z" style="fill-rule:nonzero;"/><path d="M220.842,127.758c-0.836,0 -1.545,-0.164 -2.127,-0.493c-0.582,-0.329 -1.024,-0.775 -1.326,-1.34c-0.303,-0.564 -0.454,-1.198 -0.454,-1.9c0,-0.56 0.085,-1.087 0.254,-1.58c0.168,-0.493 0.386,-0.967 0.653,-1.42c0.267,-0.453 0.547,-0.884 0.84,-1.293c0.018,-0.018 0.091,-0.116 0.22,-0.294c0.129,-0.177 0.289,-0.4 0.48,-0.666c0.191,-0.267 0.391,-0.542 0.6,-0.827c0.209,-0.284 0.407,-0.542 0.593,-0.773l2.52,-0l0,0.08c-0.169,0.204 -0.462,0.553 -0.88,1.046c-0.418,0.494 -0.889,1.074 -1.413,1.74c-0.32,0.409 -0.567,0.734 -0.74,0.974c-0.173,0.24 -0.273,0.382 -0.3,0.426l0.32,0c0.151,-0.124 0.351,-0.253 0.6,-0.386c0.249,-0.134 0.578,-0.2 0.987,-0.2c0.568,-0 1.084,0.131 1.546,0.393c0.462,0.262 0.829,0.638 1.1,1.127c0.271,0.489 0.407,1.066 0.407,1.733c-0,0.685 -0.151,1.305 -0.453,1.86c-0.303,0.556 -0.74,0.993 -1.314,1.313c-0.573,0.32 -1.278,0.48 -2.113,0.48Zm0.027,-1.6c0.56,0 1.002,-0.175 1.326,-0.526c0.325,-0.351 0.487,-0.834 0.487,-1.447c-0,-0.631 -0.165,-1.118 -0.493,-1.46c-0.329,-0.342 -0.769,-0.513 -1.32,-0.513c-0.587,-0 -1.047,0.184 -1.38,0.553c-0.334,0.369 -0.5,0.838 -0.5,1.407c-0,0.346 0.068,0.671 0.206,0.973c0.138,0.302 0.347,0.547 0.627,0.733c0.28,0.187 0.629,0.28 1.047,0.28Z" style="fill-rule:nonzero;"/><path d="M322.542,127.572l0,-1.627l2.467,0l0,-5.467l-2.24,0l-0.013,-1.44l0.64,-0.053c0.4,-0.035 0.731,-0.1 0.993,-0.193c0.262,-0.094 0.473,-0.265 0.633,-0.514c0.16,-0.248 0.28,-0.617 0.36,-1.106l1.787,-0l0,8.773l2.253,0l0,1.627l-6.88,-0Z" style="fill-rule:nonzero;"/><path d="M95.275,201.808l-0,-1.627l2.466,0l0,-5.466l-2.24,-0l-0.013,-1.44l0.64,-0.054c0.4,-0.035 0.731,-0.1 0.993,-0.193c0.262,-0.093 0.474,-0.265 0.634,-0.513c0.16,-0.249 0.28,-0.618 0.36,-1.107l1.786,-0l0,8.773l2.254,0l-0,1.627l-6.88,-0Z" style="fill-rule:nonzero;"/><path d="M107.141,201.995c-1.369,-0 -2.391,-0.476 -3.066,-1.427c-0.676,-0.951 -1.014,-2.271 -1.014,-3.96c0,-1.689 0.338,-3.009 1.014,-3.96c0.675,-0.951 1.697,-1.427 3.066,-1.427c1.378,0 2.402,0.476 3.074,1.427c0.671,0.951 1.006,2.271 1.006,3.96c0,1.689 -0.335,3.009 -1.006,3.96c-0.672,0.951 -1.696,1.427 -3.074,1.427Zm0,-1.76c0.631,-0 1.096,-0.303 1.394,-0.907c0.297,-0.605 0.446,-1.511 0.446,-2.72c0,-1.209 -0.149,-2.116 -0.446,-2.72c-0.298,-0.605 -0.763,-0.907 -1.394,-0.907c-0.631,0 -1.095,0.302 -1.393,0.907c-0.298,0.604 -0.447,1.511 -0.447,2.72c0,1.209 0.149,2.115 0.447,2.72c0.298,0.604 0.762,0.907 1.393,0.907Z" style="fill-rule:nonzero;"/><path d="M112.128,201.808l-0,-1.627l2.467,0l-0,-5.466l-2.24,-0l-0.014,-1.44l0.64,-0.054c0.4,-0.035 0.731,-0.1 0.994,-0.193c0.262,-0.093 0.473,-0.265 0.633,-0.513c0.16,-0.249 0.28,-0.618 0.36,-1.107l1.787,-0l-0,8.773l2.253,0l-0,1.627l-6.88,-0Z" style="fill-rule:nonzero;"/><path d="M212.322,201.981c-0.676,0 -1.265,-0.093 -1.767,-0.28c-0.502,-0.186 -0.92,-0.44 -1.253,-0.76c-0.333,-0.32 -0.58,-0.68 -0.74,-1.08c-0.16,-0.4 -0.24,-0.818 -0.24,-1.253l2.107,-0c0.044,0.444 0.22,0.838 0.526,1.18c0.307,0.342 0.762,0.513 1.367,0.513c0.569,0 0.995,-0.151 1.28,-0.453c0.284,-0.302 0.427,-0.667 0.427,-1.093c-0,-0.552 -0.223,-0.98 -0.667,-1.287c-0.445,-0.307 -1.045,-0.46 -1.8,-0.46l-0.467,-0l0,-1.467l1.174,-1.253c0.16,-0.169 0.322,-0.329 0.486,-0.48c0.165,-0.151 0.336,-0.285 0.514,-0.4l-0,-0.32l-4.36,-0l-0,-1.68l6.8,-0l-0,1.76l-2.374,2.333l0,0.32c0.88,0.134 1.576,0.44 2.087,0.92c0.511,0.48 0.767,1.138 0.767,1.974c-0,0.657 -0.16,1.231 -0.48,1.72c-0.32,0.488 -0.769,0.868 -1.347,1.14c-0.578,0.271 -1.258,0.406 -2.04,0.406Z" style="fill-rule:nonzero;"/><path d="M216.962,201.808l-0,-1.76c0.738,-0.56 1.382,-1.065 1.933,-1.513c0.551,-0.449 1.022,-0.86 1.414,-1.234c0.586,-0.551 1.028,-1.049 1.326,-1.493c0.298,-0.445 0.447,-0.911 0.447,-1.4c-0,-0.445 -0.127,-0.807 -0.38,-1.087c-0.253,-0.28 -0.62,-0.42 -1.1,-0.42c-0.542,0 -0.951,0.176 -1.227,0.527c-0.275,0.351 -0.413,0.815 -0.413,1.393l-2,0c-0,-0.72 0.138,-1.351 0.413,-1.893c0.276,-0.542 0.687,-0.962 1.234,-1.26c0.546,-0.298 1.224,-0.447 2.033,-0.447c1.147,0 2.033,0.291 2.66,0.874c0.627,0.582 0.94,1.348 0.94,2.3c-0,0.684 -0.178,1.313 -0.533,1.886c-0.356,0.574 -0.885,1.176 -1.587,1.807c-0.302,0.275 -0.638,0.558 -1.007,0.847c-0.369,0.288 -0.735,0.553 -1.1,0.793l0,0.32l4.574,-0l-0,1.76l-7.627,-0Z" style="fill-rule:nonzero;"/><path d="M322.542,201.808l0,-1.627l2.467,0l0,-5.466l-2.24,-0l-0.013,-1.44l0.64,-0.054c0.4,-0.035 0.731,-0.1 0.993,-0.193c0.262,-0.093 0.473,-0.265 0.633,-0.513c0.16,-0.249 0.28,-0.618 0.36,-1.107l1.787,-0l0,8.773l2.253,0l0,1.627l-6.88,-0Z" style="fill-rule:nonzero;"/></g></g></svg>